<svg width="400" height="400" viewBox="0 0 400 400" fill="none" xmlns="http://www.w3.org/2000/svg">
<g clip-path="url(#clip0_38_2)">
<line x1="81" y1="19" x2="81" y2="360" stroke="#373434" stroke-width="2"/>
<line x1="80" y1="359" x2="380" y2="359" stroke="#373434" stroke-width="2"/>
<path d="M31 224.709H20.8182V221.422C20.8182 220.7 20.9491 220.097 21.2109 219.613C21.4695 219.125 21.8291 218.759 22.2898 218.514C22.7472 218.265 23.2725 218.141 23.8658 218.141C24.459 218.141 24.9827 218.265 25.4368 218.514C25.8909 218.759 26.2455 219.124 26.5007 219.608C26.7559 220.092 26.8835 220.692 26.8835 221.407V224.206H26.0334V221.432C26.0334 220.902 25.9455 220.461 25.7699 220.11C25.5942 219.755 25.344 219.492 25.0192 219.319C24.6944 219.144 24.3099 219.056 23.8658 219.056C23.4216 219.056 23.0339 219.144 22.7024 219.319C22.3677 219.495 22.1091 219.76 21.9268 220.115C21.7446 220.466 21.6534 220.91 21.6534 221.447V223.779H31V224.709ZM26.4062 220.219L31 217.714V218.787L26.4062 221.268V220.219ZM31 214.197H20.8182V208.29H21.6534V213.267H25.4865V208.603H26.3217V213.267H30.1648V208.191H31V214.197ZM21.6534 204.82H20.8182V197.438H21.6534V200.664H31V201.594H21.6534V204.82ZM31 193.665H20.8182V187.758H21.6534L21.6534 192.735H25.4865V188.072H26.3217V192.735H30.1648V187.659H31V193.665ZM20.8182 175.742H31V176.647L22.4737 182.663V182.742H31V183.672H20.8182V182.772L29.3544 176.737V176.657H20.8182V175.742ZM21.6534 171.972H20.8182V164.589H21.6534V167.816H31V168.745H21.6534V171.972ZM20.8182 159.886H31V160.816H20.8182V159.886ZM25.9091 147.152C26.9697 147.152 27.8928 147.341 28.6783 147.719C29.4605 148.097 30.067 148.617 30.4979 149.28C30.9254 149.939 31.1392 150.698 31.1392 151.557C31.1392 152.415 30.9254 153.176 30.4979 153.839C30.067 154.498 29.4605 155.017 28.6783 155.395C27.8928 155.769 26.9697 155.957 25.9091 155.957C24.8485 155.957 23.9271 155.769 23.1449 155.395C22.3594 155.017 21.7528 154.497 21.3253 153.834C20.8944 153.171 20.679 152.412 20.679 151.557C20.679 150.698 20.8944 149.939 21.3253 149.28C21.7528 148.617 22.3594 148.097 23.1449 147.719C23.9271 147.341 24.8485 147.152 25.9091 147.152ZM25.9091 148.057C24.9976 148.057 24.2171 148.209 23.5675 148.514C22.9145 148.819 22.4157 149.235 22.071 149.762C21.7263 150.289 21.554 150.887 21.554 151.557C21.554 152.223 21.7263 152.82 22.071 153.347C22.4157 153.874 22.9129 154.291 23.5625 154.599C24.2121 154.904 24.9943 155.057 25.9091 155.057C26.8205 155.057 27.6011 154.904 28.2507 154.599C28.9003 154.295 29.3991 153.879 29.7472 153.352C30.0919 152.825 30.2642 152.226 30.2642 151.557C30.2642 150.887 30.0919 150.289 29.7472 149.762C29.4025 149.232 28.9053 148.814 28.2557 148.509C27.6027 148.204 26.8205 148.054 25.9091 148.057ZM20.8182 135.294H31V136.199L22.4737 142.214V142.294H31V143.224H20.8182V142.324L29.3544 136.288V136.209H20.8182V135.294Z" fill="var(--text-color)"/>
<path d="M211.645 390.653V389.818H219.028V390.653H215.802V400H214.872V390.653H211.645ZM223.731 389.818V400H222.801V389.818H223.731ZM228.118 389.818H229.192L232.886 398.688H232.975L236.669 389.818H237.743V400H236.868V391.782H236.789L233.353 400H232.508L229.073 391.782H228.993V400H228.118V389.818ZM242.13 400V389.818H248.036V390.653H243.06V394.487H247.723V395.322H243.06V399.165H248.136V400H242.13Z" fill="var(--text-color)"/>
<path d="M106.619 375V374.465L109.233 371.527C109.574 371.142 109.849 370.812 110.057 370.539C110.265 370.266 110.416 370.013 110.51 369.781C110.606 369.549 110.655 369.309 110.655 369.059C110.655 368.754 110.583 368.488 110.44 368.262C110.299 368.033 110.105 367.854 109.858 367.727C109.61 367.599 109.332 367.535 109.022 367.535C108.694 367.535 108.406 367.605 108.159 367.746C107.914 367.887 107.724 368.079 107.588 368.324C107.453 368.569 107.385 368.85 107.385 369.168H106.686C106.686 368.725 106.787 368.333 106.991 367.992C107.196 367.648 107.476 367.379 107.83 367.184C108.187 366.988 108.591 366.891 109.041 366.891C109.487 366.891 109.882 366.987 110.229 367.18C110.575 367.37 110.847 367.629 111.045 367.957C111.243 368.285 111.342 368.652 111.342 369.059C111.342 369.353 111.29 369.638 111.186 369.914C111.084 370.19 110.909 370.497 110.659 370.836C110.409 371.174 110.062 371.589 109.619 372.078L107.635 374.293V374.344H111.592V375H106.619ZM117.138 375.109C116.575 375.109 116.095 374.948 115.696 374.625C115.3 374.299 114.996 373.829 114.782 373.215C114.571 372.6 114.466 371.862 114.466 371C114.466 370.141 114.571 369.405 114.782 368.793C114.996 368.178 115.302 367.708 115.7 367.383C116.101 367.055 116.58 366.891 117.138 366.891C117.695 366.891 118.173 367.055 118.571 367.383C118.972 367.708 119.278 368.178 119.489 368.793C119.703 369.405 119.81 370.141 119.81 371C119.81 371.862 119.703 372.6 119.489 373.215C119.278 373.829 118.974 374.299 118.575 374.625C118.179 374.948 117.7 375.109 117.138 375.109ZM117.138 374.453C117.755 374.453 118.237 374.152 118.583 373.551C118.929 372.947 119.103 372.096 119.103 371C119.103 370.271 119.023 369.648 118.864 369.133C118.708 368.615 118.483 368.219 118.188 367.945C117.897 367.672 117.547 367.535 117.138 367.535C116.526 367.535 116.045 367.84 115.696 368.449C115.347 369.056 115.173 369.906 115.173 371C115.173 371.729 115.251 372.352 115.407 372.867C115.566 373.383 115.791 373.776 116.083 374.047C116.377 374.318 116.729 374.453 117.138 374.453ZM122.747 375V369H123.423V369.922H123.485C123.605 369.612 123.804 369.368 124.083 369.191C124.364 369.012 124.701 368.922 125.094 368.922C125.508 368.922 125.848 369.02 126.114 369.215C126.382 369.408 126.583 369.673 126.716 370.012H126.766C126.902 369.678 127.122 369.414 127.426 369.219C127.734 369.021 128.106 368.922 128.544 368.922C129.101 368.922 129.541 369.098 129.864 369.449C130.187 369.798 130.348 370.309 130.348 370.98V375H129.653V370.98C129.653 370.507 129.532 370.151 129.29 369.914C129.048 369.677 128.729 369.559 128.333 369.559C127.874 369.559 127.521 369.699 127.274 369.98C127.027 370.262 126.903 370.618 126.903 371.051V375H126.192V370.918C126.192 370.512 126.079 370.184 125.852 369.934C125.626 369.684 125.307 369.559 124.895 369.559C124.619 369.559 124.37 369.626 124.149 369.762C123.93 369.897 123.757 370.086 123.63 370.328C123.505 370.568 123.442 370.844 123.442 371.156V375H122.747Z" fill="var(--text-color)"/>
<path d="M152.544 367V375H151.813V367.766H151.766L149.891 369.012V368.254L151.782 367H152.544ZM157.016 371.25V375H156.321V367H157.016V369.941H157.078C157.219 369.632 157.437 369.384 157.731 369.199C158.028 369.014 158.403 368.922 158.856 368.922C159.262 368.922 159.619 369.005 159.926 369.172C160.233 369.339 160.473 369.585 160.645 369.91C160.817 370.236 160.903 370.637 160.903 371.113V375H160.203V371.156C160.203 370.661 160.065 370.272 159.789 369.988C159.516 369.702 159.146 369.559 158.68 369.559C158.36 369.559 158.075 369.626 157.825 369.762C157.575 369.897 157.377 370.092 157.231 370.348C157.088 370.6 157.016 370.901 157.016 371.25Z" fill="var(--text-color)"/>
<path d="M188.579 366.891C188.912 366.893 189.235 366.961 189.548 367.094C189.863 367.224 190.146 367.435 190.399 367.727C190.652 368.016 190.852 368.401 191.001 368.883C191.149 369.362 191.223 369.952 191.223 370.652C191.223 371.306 191.166 371.905 191.051 372.449C190.937 372.993 190.765 373.465 190.536 373.863C190.309 374.259 190.023 374.566 189.676 374.785C189.333 375.001 188.93 375.109 188.469 375.109C188.04 375.109 187.658 375.02 187.325 374.84C186.994 374.66 186.726 374.411 186.52 374.094C186.314 373.773 186.187 373.404 186.137 372.984H186.856C186.926 373.411 187.098 373.763 187.372 374.039C187.648 374.315 188.014 374.453 188.469 374.453C189.123 374.453 189.631 374.148 189.993 373.539C190.355 372.93 190.536 372.062 190.536 370.937H190.485C190.36 371.172 190.196 371.376 189.993 371.551C189.792 371.725 189.563 371.862 189.305 371.961C189.048 372.057 188.775 372.105 188.489 372.105C188.044 372.105 187.636 371.993 187.266 371.77C186.896 371.543 186.601 371.234 186.38 370.844C186.158 370.451 186.048 370.003 186.048 369.5C186.048 369.026 186.152 368.591 186.36 368.195C186.571 367.797 186.865 367.479 187.243 367.242C187.623 367.003 188.068 366.885 188.579 366.891ZM188.579 367.547C188.232 367.547 187.921 367.635 187.645 367.812C187.372 367.987 187.154 368.223 186.993 368.52C186.834 368.814 186.755 369.141 186.755 369.5C186.755 369.862 186.834 370.191 186.993 370.488C187.154 370.783 187.372 371.017 187.645 371.191C187.921 371.363 188.232 371.449 188.579 371.449C188.844 371.449 189.092 371.396 189.321 371.289C189.55 371.18 189.748 371.031 189.915 370.844C190.084 370.656 190.212 370.444 190.298 370.207C190.386 369.967 190.421 369.716 190.403 369.453C190.372 369.089 190.274 368.763 190.11 368.477C189.949 368.187 189.735 367.961 189.469 367.797C189.206 367.63 188.909 367.547 188.579 367.547ZM194.918 371.25V375H194.223V367H194.918V369.941H194.981C195.121 369.632 195.339 369.384 195.633 369.199C195.93 369.014 196.305 368.922 196.758 368.922C197.164 368.922 197.521 369.005 197.828 369.172C198.136 369.339 198.375 369.585 198.547 369.91C198.719 370.236 198.805 370.637 198.805 371.113V375H198.106V371.156C198.106 370.661 197.968 370.272 197.692 369.988C197.418 369.702 197.049 369.559 196.582 369.559C196.262 369.559 195.977 369.626 195.727 369.762C195.477 369.897 195.279 370.092 195.133 370.348C194.99 370.6 194.918 370.901 194.918 371.25Z" fill="var(--text-color)"/>
<path d="M227.377 367V375H226.647V367.766H226.6L224.725 369.012V368.254L226.615 367H227.377ZM233.314 375.125C232.822 375.125 232.391 374.995 232.021 374.734C231.652 374.474 231.362 374.111 231.154 373.645C230.948 373.178 230.846 372.635 230.846 372.016C230.846 371.398 230.948 370.858 231.154 370.395C231.362 369.928 231.653 369.566 232.025 369.309C232.398 369.048 232.831 368.918 233.326 368.918C233.691 368.918 233.994 368.983 234.236 369.113C234.478 369.241 234.672 369.4 234.818 369.59C234.964 369.78 235.077 369.965 235.158 370.145H235.221V367H235.92V375H235.24V373.887H235.158C235.077 374.069 234.963 374.257 234.814 374.449C234.666 374.639 234.469 374.799 234.224 374.93C233.982 375.06 233.679 375.125 233.314 375.125ZM233.396 374.488C233.784 374.488 234.115 374.383 234.389 374.172C234.662 373.958 234.87 373.665 235.014 373.293C235.159 372.918 235.232 372.488 235.232 372.004C235.232 371.525 235.161 371.102 235.017 370.734C234.874 370.365 234.666 370.076 234.392 369.867C234.119 369.656 233.787 369.551 233.396 369.551C232.995 369.551 232.657 369.66 232.381 369.879C232.107 370.095 231.899 370.388 231.756 370.758C231.615 371.128 231.545 371.543 231.545 372.004C231.545 372.47 231.616 372.891 231.76 373.266C231.903 373.641 232.111 373.939 232.385 374.16C232.661 374.379 232.998 374.488 233.396 374.488Z" fill="var(--text-color)"/>
<path d="M262.001 375V374.465L264.614 371.527C264.955 371.142 265.23 370.812 265.438 370.539C265.646 370.266 265.798 370.013 265.891 369.781C265.988 369.549 266.036 369.309 266.036 369.059C266.036 368.754 265.964 368.488 265.821 368.262C265.68 368.033 265.486 367.854 265.239 367.727C264.992 367.599 264.713 367.535 264.403 367.535C264.075 367.535 263.787 367.605 263.54 367.746C263.295 367.887 263.105 368.079 262.969 368.324C262.834 368.569 262.766 368.85 262.766 369.168H262.067C262.067 368.725 262.169 368.333 262.372 367.992C262.577 367.648 262.857 367.379 263.212 367.184C263.568 366.988 263.972 366.891 264.423 366.891C264.868 366.891 265.264 366.987 265.61 367.18C265.956 367.37 266.229 367.629 266.426 367.957C266.624 368.285 266.723 368.652 266.723 369.059C266.723 369.353 266.671 369.638 266.567 369.914C266.465 370.19 266.29 370.497 266.04 370.836C265.79 371.174 265.443 371.589 265.001 372.078L263.016 374.293V374.344H266.973V375H262.001ZM272.222 375.125C271.73 375.125 271.299 374.995 270.929 374.734C270.559 374.474 270.27 374.111 270.062 373.645C269.856 373.178 269.753 372.635 269.753 372.016C269.753 371.398 269.856 370.858 270.062 370.395C270.27 369.928 270.561 369.566 270.933 369.309C271.305 369.048 271.739 368.918 272.234 368.918C272.598 368.918 272.902 368.983 273.144 369.113C273.386 369.241 273.58 369.4 273.726 369.59C273.872 369.78 273.985 369.965 274.066 370.145H274.128V367H274.827V375H274.148V373.887H274.066C273.985 374.069 273.87 374.257 273.722 374.449C273.574 374.639 273.377 374.799 273.132 374.93C272.89 375.06 272.587 375.125 272.222 375.125ZM272.304 374.488C272.692 374.488 273.023 374.383 273.296 374.172C273.57 373.958 273.778 373.665 273.921 373.293C274.067 372.918 274.14 372.488 274.14 372.004C274.14 371.525 274.068 371.102 273.925 370.734C273.782 370.365 273.574 370.076 273.3 369.867C273.027 369.656 272.695 369.551 272.304 369.551C271.903 369.551 271.564 369.66 271.288 369.879C271.015 370.095 270.807 370.388 270.663 370.758C270.523 371.128 270.452 371.543 270.452 372.004C270.452 372.47 270.524 372.891 270.667 373.266C270.811 373.641 271.019 373.939 271.292 374.16C271.568 374.379 271.906 374.488 272.304 374.488Z" fill="var(--text-color)"/>
<path d="M301.526 375.109C301.195 375.107 300.872 375.04 300.557 374.91C300.242 374.777 299.958 374.565 299.705 374.273C299.453 373.979 299.252 373.591 299.104 373.109C298.955 372.628 298.881 372.035 298.881 371.332C298.881 370.681 298.938 370.085 299.053 369.543C299.167 369.001 299.339 368.533 299.569 368.137C299.798 367.741 300.084 367.435 300.428 367.219C300.772 367 301.174 366.891 301.635 366.891C302.067 366.891 302.449 366.98 302.779 367.16C303.11 367.337 303.378 367.585 303.584 367.902C303.79 368.22 303.919 368.586 303.971 369H303.252C303.179 368.578 303.006 368.23 302.733 367.957C302.459 367.684 302.093 367.547 301.635 367.547C300.979 367.547 300.471 367.852 300.111 368.461C299.752 369.068 299.571 369.93 299.569 371.047H299.619C299.747 370.81 299.911 370.605 300.111 370.434C300.315 370.259 300.545 370.124 300.803 370.027C301.061 369.928 301.332 369.879 301.615 369.879C302.061 369.879 302.468 369.992 302.838 370.219C303.208 370.443 303.503 370.751 303.725 371.145C303.946 371.535 304.057 371.982 304.057 372.484C304.057 372.961 303.951 373.4 303.74 373.801C303.532 374.202 303.238 374.521 302.858 374.758C302.48 374.995 302.036 375.112 301.526 375.109ZM301.526 374.453C301.875 374.453 302.186 374.365 302.459 374.187C302.735 374.01 302.953 373.773 303.111 373.477C303.27 373.177 303.35 372.846 303.35 372.484C303.35 372.122 303.27 371.794 303.111 371.5C302.953 371.206 302.735 370.971 302.459 370.797C302.186 370.622 301.875 370.535 301.526 370.535C301.26 370.535 301.013 370.59 300.783 370.699C300.554 370.806 300.355 370.953 300.186 371.141C300.019 371.326 299.891 371.538 299.803 371.777C299.717 372.017 299.684 372.268 299.705 372.531C299.734 372.898 299.829 373.228 299.99 373.52C300.154 373.809 300.368 374.036 300.631 374.203C300.897 374.37 301.195 374.453 301.526 374.453ZM309.217 375.125C308.724 375.125 308.293 374.995 307.924 374.734C307.554 374.474 307.265 374.111 307.056 373.645C306.851 373.178 306.748 372.635 306.748 372.016C306.748 371.398 306.851 370.858 307.056 370.395C307.265 369.928 307.555 369.566 307.928 369.309C308.3 369.048 308.734 368.918 309.228 368.918C309.593 368.918 309.896 368.983 310.139 369.113C310.381 369.241 310.575 369.4 310.721 369.59C310.866 369.78 310.98 369.965 311.06 370.145H311.123V367H311.822V375H311.142V373.887H311.06C310.98 374.069 310.865 374.257 310.717 374.449C310.568 374.639 310.372 374.799 310.127 374.93C309.885 375.06 309.581 375.125 309.217 375.125ZM309.299 374.488C309.687 374.488 310.017 374.383 310.291 374.172C310.564 373.958 310.773 373.665 310.916 373.293C311.062 372.918 311.135 372.488 311.135 372.004C311.135 371.525 311.063 371.102 310.92 370.734C310.777 370.365 310.568 370.076 310.295 369.867C310.021 369.656 309.689 369.551 309.299 369.551C308.898 369.551 308.559 369.66 308.283 369.879C308.01 370.095 307.801 370.388 307.658 370.758C307.517 371.128 307.447 371.543 307.447 372.004C307.447 372.47 307.519 372.891 307.662 373.266C307.805 373.641 308.014 373.939 308.287 374.16C308.563 374.379 308.9 374.488 309.299 374.488Z" fill="var(--text-color)"/>
<path d="M336.387 375.109C335.895 375.109 335.455 375.021 335.067 374.844C334.679 374.664 334.371 374.415 334.145 374.098C333.918 373.78 333.798 373.414 333.785 373H334.524C334.537 373.292 334.627 373.547 334.793 373.766C334.96 373.982 335.181 374.151 335.457 374.273C335.733 374.393 336.041 374.453 336.379 374.453C336.749 374.453 337.075 374.384 337.356 374.246C337.64 374.108 337.861 373.919 338.02 373.68C338.181 373.437 338.262 373.164 338.262 372.859C338.262 372.536 338.18 372.251 338.016 372.004C337.852 371.757 337.616 371.564 337.309 371.426C337.004 371.288 336.64 371.219 336.215 371.219H335.746V370.562H336.215C336.562 370.562 336.868 370.5 337.133 370.375C337.401 370.247 337.612 370.069 337.766 369.84C337.92 369.611 337.996 369.341 337.996 369.031C337.996 368.737 337.93 368.478 337.797 368.254C337.664 368.03 337.477 367.854 337.235 367.727C336.995 367.599 336.715 367.535 336.395 367.535C336.085 367.535 335.801 367.595 335.543 367.715C335.285 367.835 335.077 368.004 334.918 368.223C334.762 368.441 334.679 368.701 334.668 369H333.961C333.972 368.583 334.086 368.217 334.305 367.902C334.526 367.585 334.819 367.337 335.184 367.16C335.551 366.98 335.957 366.891 336.403 366.891C336.874 366.891 337.282 366.987 337.625 367.18C337.969 367.372 338.235 367.629 338.422 367.949C338.612 368.267 338.707 368.617 338.707 369C338.707 369.456 338.584 369.846 338.336 370.172C338.089 370.495 337.756 370.719 337.336 370.844V370.895C337.847 370.996 338.248 371.223 338.539 371.574C338.834 371.923 338.981 372.352 338.981 372.859C338.981 373.286 338.869 373.671 338.645 374.012C338.421 374.35 338.114 374.618 337.723 374.816C337.335 375.012 336.89 375.109 336.387 375.109ZM344.496 367V375H343.766V367.766H343.719L341.844 369.012V368.254L343.734 367H344.496ZM350.433 375.125C349.941 375.125 349.51 374.995 349.14 374.734C348.771 374.474 348.481 374.111 348.273 373.645C348.067 373.178 347.965 372.635 347.965 372.016C347.965 371.398 348.067 370.858 348.273 370.395C348.481 369.928 348.772 369.566 349.144 369.309C349.517 369.048 349.95 368.918 350.445 368.918C350.81 368.918 351.113 368.983 351.355 369.113C351.597 369.241 351.791 369.4 351.937 369.59C352.083 369.78 352.196 369.965 352.277 370.145H352.34V367H353.039V375H352.359V373.887H352.277C352.196 374.069 352.082 374.257 351.933 374.449C351.785 374.639 351.588 374.799 351.343 374.93C351.101 375.06 350.798 375.125 350.433 375.125ZM350.515 374.488C350.903 374.488 351.234 374.383 351.507 374.172C351.781 373.958 351.989 373.665 352.132 373.293C352.278 372.918 352.351 372.488 352.351 372.004C352.351 371.525 352.28 371.102 352.136 370.734C351.993 370.365 351.785 370.076 351.511 369.867C351.238 369.656 350.906 369.551 350.515 369.551C350.114 369.551 349.776 369.66 349.5 369.879C349.226 370.095 349.018 370.388 348.875 370.758C348.734 371.128 348.664 371.543 348.664 372.004C348.664 372.47 348.735 372.891 348.879 373.266C349.022 373.641 349.23 373.939 349.504 374.16C349.78 374.379 350.117 374.488 350.515 374.488Z" fill="var(--text-color)"/>
<path d="M56.5111 364.109C55.9486 364.109 55.4681 363.948 55.0696 363.625C54.6738 363.299 54.3691 362.829 54.1556 362.215C53.9446 361.6 53.8392 360.862 53.8392 360C53.8392 359.141 53.9446 358.405 54.1556 357.793C54.3691 357.178 54.6751 356.708 55.0736 356.383C55.4746 356.055 55.9538 355.891 56.5111 355.891C57.0683 355.891 57.5462 356.055 57.9446 356.383C58.3457 356.708 58.6517 357.178 58.8626 357.793C59.0762 358.405 59.1829 359.141 59.1829 360C59.1829 360.862 59.0762 361.6 58.8626 362.215C58.6517 362.829 58.347 363.299 57.9486 363.625C57.5527 363.948 57.0736 364.109 56.5111 364.109ZM56.5111 363.453C57.1282 363.453 57.61 363.152 57.9564 362.551C58.3027 361.947 58.4759 361.096 58.4759 360C58.4759 359.271 58.3965 358.648 58.2376 358.133C58.0814 357.615 57.8561 357.219 57.5618 356.945C57.2702 356.672 56.9199 356.535 56.5111 356.535C55.8991 356.535 55.4186 356.84 55.0696 357.449C54.7207 358.056 54.5462 358.906 54.5462 360C54.5462 360.729 54.6243 361.352 54.7806 361.867C54.9394 362.383 55.1647 362.776 55.4564 363.047C55.7506 363.318 56.1022 363.453 56.5111 363.453ZM66.1396 362.516V362.152C66.1396 361.853 66.1995 361.583 66.3193 361.344C66.4391 361.102 66.6097 360.91 66.8311 360.77C67.0524 360.629 67.3154 360.559 67.6201 360.559C67.9274 360.559 68.1904 360.629 68.4092 360.77C68.6279 360.91 68.7959 361.102 68.9131 361.344C69.0303 361.583 69.0889 361.853 69.0889 362.152V362.516C69.0889 362.815 69.029 363.085 68.9092 363.324C68.792 363.564 68.624 363.755 68.4053 363.898C68.1865 364.039 67.9248 364.109 67.6201 364.109C67.3102 364.109 67.0446 364.039 66.8232 363.898C66.6045 363.755 66.4352 363.564 66.3154 363.324C66.1982 363.085 66.1396 362.815 66.1396 362.516ZM66.7529 362.152V362.516C66.7529 362.81 66.8245 363.061 66.9678 363.27C67.1136 363.475 67.3311 363.578 67.6201 363.578C67.9014 363.578 68.1136 363.475 68.2568 363.27C68.4001 363.061 68.4717 362.81 68.4717 362.516V362.152C68.4717 361.858 68.4014 361.608 68.2607 361.402C68.1201 361.194 67.9066 361.09 67.6201 361.09C67.3363 361.09 67.1201 361.194 66.9717 361.402C66.8258 361.608 66.7529 361.858 66.7529 362.152ZM62.1084 357.848V357.484C62.1084 357.185 62.1683 356.915 62.2881 356.676C62.4079 356.436 62.5785 356.246 62.7998 356.105C63.0212 355.962 63.2842 355.891 63.5889 355.891C63.8962 355.891 64.1592 355.962 64.3779 356.105C64.5967 356.246 64.7646 356.436 64.8818 356.676C64.999 356.915 65.0576 357.185 65.0576 357.484V357.848C65.0576 358.147 64.9977 358.418 64.8779 358.66C64.7607 358.9 64.5928 359.09 64.374 359.23C64.1553 359.371 63.8936 359.441 63.5889 359.441C63.279 359.441 63.0133 359.371 62.792 359.23C62.5732 359.09 62.404 358.9 62.2842 358.66C62.167 358.418 62.1084 358.147 62.1084 357.848ZM62.7217 357.484V357.848C62.7217 358.142 62.7933 358.393 62.9365 358.602C63.0824 358.807 63.2998 358.91 63.5889 358.91C63.8701 358.91 64.0824 358.807 64.2256 358.602C64.3688 358.393 64.4404 358.142 64.4404 357.848V357.484C64.4404 357.19 64.3701 356.94 64.2295 356.734C64.0889 356.526 63.8753 356.422 63.5889 356.422C63.305 356.422 63.0889 356.526 62.9404 356.734C62.7946 356.94 62.7217 357.19 62.7217 357.484ZM62.4678 364L67.9639 356H68.6553L63.1592 364H62.4678Z" fill="var(--text-color)"/>
<path d="M45.9928 296V295.465L48.6061 292.527C48.9472 292.142 49.222 291.812 49.4303 291.539C49.6386 291.266 49.7897 291.013 49.8834 290.781C49.9798 290.549 50.028 290.309 50.028 290.059C50.028 289.754 49.9564 289.488 49.8131 289.262C49.6725 289.033 49.4785 288.854 49.2311 288.727C48.9837 288.599 48.7051 288.535 48.3952 288.535C48.067 288.535 47.7793 288.605 47.5319 288.746C47.2871 288.887 47.097 289.079 46.9616 289.324C46.8261 289.569 46.7584 289.85 46.7584 290.168H46.0592C46.0592 289.725 46.1608 289.333 46.3639 288.992C46.5696 288.648 46.8496 288.379 47.2038 288.184C47.5605 287.988 47.9642 287.891 48.4147 287.891C48.86 287.891 49.2558 287.987 49.6022 288.18C49.9485 288.37 50.2207 288.629 50.4186 288.957C50.6165 289.285 50.7155 289.652 50.7155 290.059C50.7155 290.353 50.6634 290.638 50.5592 290.914C50.4577 291.19 50.2819 291.497 50.0319 291.836C49.7819 292.174 49.4355 292.589 48.9928 293.078L47.0084 295.293V295.344H50.9655V296H45.9928ZM56.5111 296.109C55.9486 296.109 55.4681 295.948 55.0696 295.625C54.6738 295.299 54.3691 294.829 54.1556 294.215C53.9446 293.6 53.8392 292.862 53.8392 292C53.8392 291.141 53.9446 290.405 54.1556 289.793C54.3691 289.178 54.6751 288.708 55.0736 288.383C55.4746 288.055 55.9538 287.891 56.5111 287.891C57.0683 287.891 57.5462 288.055 57.9446 288.383C58.3457 288.708 58.6517 289.178 58.8626 289.793C59.0762 290.405 59.1829 291.141 59.1829 292C59.1829 292.862 59.0762 293.6 58.8626 294.215C58.6517 294.829 58.347 295.299 57.9486 295.625C57.5527 295.948 57.0736 296.109 56.5111 296.109ZM56.5111 295.453C57.1282 295.453 57.61 295.152 57.9564 294.551C58.3027 293.947 58.4759 293.096 58.4759 292C58.4759 291.271 58.3965 290.648 58.2376 290.133C58.0814 289.615 57.8561 289.219 57.5618 288.945C57.2702 288.672 56.9199 288.535 56.5111 288.535C55.8991 288.535 55.4186 288.84 55.0696 289.449C54.7207 290.056 54.5462 290.906 54.5462 292C54.5462 292.729 54.6243 293.352 54.7806 293.867C54.9394 294.383 55.1647 294.776 55.4564 295.047C55.7506 295.318 56.1022 295.453 56.5111 295.453ZM66.1396 294.516V294.152C66.1396 293.853 66.1995 293.583 66.3193 293.344C66.4391 293.102 66.6097 292.91 66.8311 292.77C67.0524 292.629 67.3154 292.559 67.6201 292.559C67.9274 292.559 68.1904 292.629 68.4092 292.77C68.6279 292.91 68.7959 293.102 68.9131 293.344C69.0303 293.583 69.0889 293.853 69.0889 294.152V294.516C69.0889 294.815 69.029 295.085 68.9092 295.324C68.792 295.564 68.624 295.755 68.4053 295.898C68.1865 296.039 67.9248 296.109 67.6201 296.109C67.3102 296.109 67.0446 296.039 66.8232 295.898C66.6045 295.755 66.4352 295.564 66.3154 295.324C66.1982 295.085 66.1396 294.815 66.1396 294.516ZM66.7529 294.152V294.516C66.7529 294.81 66.8245 295.061 66.9678 295.27C67.1136 295.475 67.3311 295.578 67.6201 295.578C67.9014 295.578 68.1136 295.475 68.2568 295.27C68.4001 295.061 68.4717 294.81 68.4717 294.516V294.152C68.4717 293.858 68.4014 293.608 68.2607 293.402C68.1201 293.194 67.9066 293.09 67.6201 293.09C67.3363 293.09 67.1201 293.194 66.9717 293.402C66.8258 293.608 66.7529 293.858 66.7529 294.152ZM62.1084 289.848V289.484C62.1084 289.185 62.1683 288.915 62.2881 288.676C62.4079 288.436 62.5785 288.246 62.7998 288.105C63.0212 287.962 63.2842 287.891 63.5889 287.891C63.8962 287.891 64.1592 287.962 64.3779 288.105C64.5967 288.246 64.7646 288.436 64.8818 288.676C64.999 288.915 65.0576 289.185 65.0576 289.484V289.848C65.0576 290.147 64.9977 290.418 64.8779 290.66C64.7607 290.9 64.5928 291.09 64.374 291.23C64.1553 291.371 63.8936 291.441 63.5889 291.441C63.279 291.441 63.0133 291.371 62.792 291.23C62.5732 291.09 62.404 290.9 62.2842 290.66C62.167 290.418 62.1084 290.147 62.1084 289.848ZM62.7217 289.484V289.848C62.7217 290.142 62.7933 290.393 62.9365 290.602C63.0824 290.807 63.2998 290.91 63.5889 290.91C63.8701 290.91 64.0824 290.807 64.2256 290.602C64.3688 290.393 64.4404 290.142 64.4404 289.848V289.484C64.4404 289.19 64.3701 288.94 64.2295 288.734C64.0889 288.526 63.8753 288.422 63.5889 288.422C63.305 288.422 63.0889 288.526 62.9404 288.734C62.7946 288.94 62.7217 289.19 62.7217 289.484ZM62.4678 296L67.9639 288H68.6553L63.1592 296H62.4678Z" fill="var(--text-color)"/>
<path d="M45.6295 226.281V225.687L49.1959 220H49.6334V220.996H49.3092L46.4459 225.574V225.625H51.1217V226.281H45.6295ZM49.3639 228V226.094V225.82V220H50.0592V228H49.3639ZM56.5111 228.109C55.9486 228.109 55.4681 227.948 55.0696 227.625C54.6738 227.299 54.3691 226.829 54.1556 226.215C53.9446 225.6 53.8392 224.862 53.8392 224C53.8392 223.141 53.9446 222.405 54.1556 221.793C54.3691 221.178 54.6751 220.708 55.0736 220.383C55.4746 220.055 55.9538 219.891 56.5111 219.891C57.0683 219.891 57.5462 220.055 57.9446 220.383C58.3457 220.708 58.6517 221.178 58.8626 221.793C59.0762 222.405 59.1829 223.141 59.1829 224C59.1829 224.862 59.0762 225.6 58.8626 226.215C58.6517 226.829 58.347 227.299 57.9486 227.625C57.5527 227.948 57.0736 228.109 56.5111 228.109ZM56.5111 227.453C57.1282 227.453 57.61 227.152 57.9564 226.551C58.3027 225.947 58.4759 225.096 58.4759 224C58.4759 223.271 58.3965 222.648 58.2376 222.133C58.0814 221.615 57.8561 221.219 57.5618 220.945C57.2702 220.672 56.9199 220.535 56.5111 220.535C55.8991 220.535 55.4186 220.84 55.0696 221.449C54.7207 222.056 54.5462 222.906 54.5462 224C54.5462 224.729 54.6243 225.352 54.7806 225.867C54.9394 226.383 55.1647 226.776 55.4564 227.047C55.7506 227.318 56.1022 227.453 56.5111 227.453ZM66.1396 226.516V226.152C66.1396 225.853 66.1995 225.583 66.3193 225.344C66.4391 225.102 66.6097 224.91 66.8311 224.77C67.0524 224.629 67.3154 224.559 67.6201 224.559C67.9274 224.559 68.1904 224.629 68.4092 224.77C68.6279 224.91 68.7959 225.102 68.9131 225.344C69.0303 225.583 69.0889 225.853 69.0889 226.152V226.516C69.0889 226.815 69.029 227.085 68.9092 227.324C68.792 227.564 68.624 227.755 68.4053 227.898C68.1865 228.039 67.9248 228.109 67.6201 228.109C67.3102 228.109 67.0446 228.039 66.8232 227.898C66.6045 227.755 66.4352 227.564 66.3154 227.324C66.1982 227.085 66.1396 226.815 66.1396 226.516ZM66.7529 226.152V226.516C66.7529 226.81 66.8245 227.061 66.9678 227.27C67.1136 227.475 67.3311 227.578 67.6201 227.578C67.9014 227.578 68.1136 227.475 68.2568 227.27C68.4001 227.061 68.4717 226.81 68.4717 226.516V226.152C68.4717 225.858 68.4014 225.608 68.2607 225.402C68.1201 225.194 67.9066 225.09 67.6201 225.09C67.3363 225.09 67.1201 225.194 66.9717 225.402C66.8258 225.608 66.7529 225.858 66.7529 226.152ZM62.1084 221.848V221.484C62.1084 221.185 62.1683 220.915 62.2881 220.676C62.4079 220.436 62.5785 220.246 62.7998 220.105C63.0212 219.962 63.2842 219.891 63.5889 219.891C63.8962 219.891 64.1592 219.962 64.3779 220.105C64.5967 220.246 64.7646 220.436 64.8818 220.676C64.999 220.915 65.0576 221.185 65.0576 221.484V221.848C65.0576 222.147 64.9977 222.418 64.8779 222.66C64.7607 222.9 64.5928 223.09 64.374 223.23C64.1553 223.371 63.8936 223.441 63.5889 223.441C63.279 223.441 63.0133 223.371 62.792 223.23C62.5732 223.09 62.404 222.9 62.2842 222.66C62.167 222.418 62.1084 222.147 62.1084 221.848ZM62.7217 221.484V221.848C62.7217 222.142 62.7933 222.393 62.9365 222.602C63.0824 222.807 63.2998 222.91 63.5889 222.91C63.8701 222.91 64.0824 222.807 64.2256 222.602C64.3688 222.393 64.4404 222.142 64.4404 221.848V221.484C64.4404 221.19 64.3701 220.94 64.2295 220.734C64.0889 220.526 63.8753 220.422 63.5889 220.422C63.305 220.422 63.0889 220.526 62.9404 220.734C62.7946 220.94 62.7217 221.19 62.7217 221.484ZM62.4678 228L67.9639 220H68.6553L63.1592 228H62.4678Z" fill="var(--text-color)"/>
<path d="M48.5231 160.109C48.1924 160.107 47.8694 160.04 47.5543 159.91C47.2392 159.777 46.9554 159.565 46.7028 159.273C46.4502 158.979 46.2496 158.591 46.1012 158.109C45.9528 157.628 45.8786 157.035 45.8786 156.332C45.8786 155.681 45.9358 155.085 46.0504 154.543C46.165 154.001 46.3369 153.533 46.5661 153.137C46.7952 152.741 47.0817 152.435 47.4254 152.219C47.7692 152 48.1715 151.891 48.6325 151.891C49.0648 151.891 49.4463 151.98 49.777 152.16C50.1077 152.337 50.376 152.585 50.5817 152.902C50.7874 153.22 50.9163 153.586 50.9684 154H50.2496C50.1767 153.578 50.0036 153.23 49.7301 152.957C49.4567 152.684 49.0908 152.547 48.6325 152.547C47.9762 152.547 47.4684 152.852 47.109 153.461C46.7496 154.068 46.5687 154.93 46.5661 156.047H46.6168C46.7444 155.81 46.9085 155.605 47.109 155.434C47.3121 155.259 47.5426 155.124 47.8004 155.027C48.0582 154.928 48.3291 154.879 48.6129 154.879C49.0582 154.879 49.4658 154.992 49.8356 155.219C50.2054 155.443 50.501 155.751 50.7223 156.145C50.9437 156.535 51.0543 156.982 51.0543 157.484C51.0543 157.961 50.9489 158.4 50.7379 158.801C50.5296 159.202 50.2353 159.521 49.8551 159.758C49.4775 159.995 49.0335 160.112 48.5231 160.109ZM48.5231 159.453C48.872 159.453 49.1832 159.365 49.4567 159.187C49.7327 159.01 49.9502 158.773 50.109 158.477C50.2679 158.177 50.3473 157.846 50.3473 157.484C50.3473 157.122 50.2679 156.794 50.109 156.5C49.9502 156.206 49.7327 155.971 49.4567 155.797C49.1832 155.622 48.872 155.535 48.5231 155.535C48.2575 155.535 48.0101 155.59 47.7809 155.699C47.5517 155.806 47.3525 155.953 47.1832 156.141C47.0166 156.326 46.889 156.538 46.8004 156.777C46.7145 157.017 46.6819 157.268 46.7028 157.531C46.7314 157.898 46.8265 158.228 46.9879 158.52C47.152 158.809 47.3655 159.036 47.6286 159.203C47.8942 159.37 48.1924 159.453 48.5231 159.453ZM56.5111 160.109C55.9486 160.109 55.4681 159.948 55.0696 159.625C54.6738 159.299 54.3691 158.829 54.1556 158.215C53.9446 157.6 53.8392 156.862 53.8392 156C53.8392 155.141 53.9446 154.405 54.1556 153.793C54.3691 153.178 54.6751 152.708 55.0736 152.383C55.4746 152.055 55.9538 151.891 56.5111 151.891C57.0683 151.891 57.5462 152.055 57.9446 152.383C58.3457 152.708 58.6517 153.178 58.8626 153.793C59.0762 154.405 59.1829 155.141 59.1829 156C59.1829 156.862 59.0762 157.6 58.8626 158.215C58.6517 158.829 58.347 159.299 57.9486 159.625C57.5527 159.948 57.0736 160.109 56.5111 160.109ZM56.5111 159.453C57.1282 159.453 57.61 159.152 57.9564 158.551C58.3027 157.947 58.4759 157.096 58.4759 156C58.4759 155.271 58.3965 154.648 58.2376 154.133C58.0814 153.615 57.8561 153.219 57.5618 152.945C57.2702 152.672 56.9199 152.535 56.5111 152.535C55.8991 152.535 55.4186 152.84 55.0696 153.449C54.7207 154.056 54.5462 154.906 54.5462 156C54.5462 156.729 54.6243 157.352 54.7806 157.867C54.9394 158.383 55.1647 158.776 55.4564 159.047C55.7506 159.318 56.1022 159.453 56.5111 159.453ZM66.1396 158.516V158.152C66.1396 157.853 66.1995 157.583 66.3193 157.344C66.4391 157.102 66.6097 156.91 66.8311 156.77C67.0524 156.629 67.3154 156.559 67.6201 156.559C67.9274 156.559 68.1904 156.629 68.4092 156.77C68.6279 156.91 68.7959 157.102 68.9131 157.344C69.0303 157.583 69.0889 157.853 69.0889 158.152V158.516C69.0889 158.815 69.029 159.085 68.9092 159.324C68.792 159.564 68.624 159.755 68.4053 159.898C68.1865 160.039 67.9248 160.109 67.6201 160.109C67.3102 160.109 67.0446 160.039 66.8232 159.898C66.6045 159.755 66.4352 159.564 66.3154 159.324C66.1982 159.085 66.1396 158.815 66.1396 158.516ZM66.7529 158.152V158.516C66.7529 158.81 66.8245 159.061 66.9678 159.27C67.1136 159.475 67.3311 159.578 67.6201 159.578C67.9014 159.578 68.1136 159.475 68.2568 159.27C68.4001 159.061 68.4717 158.81 68.4717 158.516V158.152C68.4717 157.858 68.4014 157.608 68.2607 157.402C68.1201 157.194 67.9066 157.09 67.6201 157.09C67.3363 157.09 67.1201 157.194 66.9717 157.402C66.8258 157.608 66.7529 157.858 66.7529 158.152ZM62.1084 153.848V153.484C62.1084 153.185 62.1683 152.915 62.2881 152.676C62.4079 152.436 62.5785 152.246 62.7998 152.105C63.0212 151.962 63.2842 151.891 63.5889 151.891C63.8962 151.891 64.1592 151.962 64.3779 152.105C64.5967 152.246 64.7646 152.436 64.8818 152.676C64.999 152.915 65.0576 153.185 65.0576 153.484V153.848C65.0576 154.147 64.9977 154.418 64.8779 154.66C64.7607 154.9 64.5928 155.09 64.374 155.23C64.1553 155.371 63.8936 155.441 63.5889 155.441C63.279 155.441 63.0133 155.371 62.792 155.23C62.5732 155.09 62.404 154.9 62.2842 154.66C62.167 154.418 62.1084 154.147 62.1084 153.848ZM62.7217 153.484V153.848C62.7217 154.142 62.7933 154.393 62.9365 154.602C63.0824 154.807 63.2998 154.91 63.5889 154.91C63.8701 154.91 64.0824 154.807 64.2256 154.602C64.3688 154.393 64.4404 154.142 64.4404 153.848V153.484C64.4404 153.19 64.3701 152.94 64.2295 152.734C64.0889 152.526 63.8753 152.422 63.5889 152.422C63.305 152.422 63.0889 152.526 62.9404 152.734C62.7946 152.94 62.7217 153.19 62.7217 153.484ZM62.4678 160L67.9639 152H68.6553L63.1592 160H62.4678Z" fill="var(--text-color)"/>
<path d="M48.444 92.1094C47.9336 92.1094 47.4791 92.013 47.0807 91.8203C46.6823 91.6276 46.3698 91.3646 46.1432 91.0312C45.9166 90.6953 45.8034 90.3164 45.8034 89.8945C45.8034 89.5638 45.8724 89.2552 46.0104 88.9687C46.1484 88.6797 46.3385 88.4375 46.5807 88.2422C46.8229 88.0443 47.095 87.9154 47.3971 87.8555V87.8125C47.0039 87.6979 46.6875 87.4727 46.4479 87.1367C46.2083 86.7982 46.0898 86.4141 46.0924 85.9844C46.0898 85.5859 46.1914 85.2292 46.3971 84.9141C46.6028 84.599 46.8828 84.3503 47.237 84.168C47.5937 83.9831 47.9961 83.8906 48.444 83.8906C48.8893 83.8906 49.289 83.9831 49.6432 84.168C49.9974 84.3503 50.2773 84.599 50.483 84.9141C50.6914 85.2292 50.7968 85.5859 50.7995 85.9844C50.7968 86.4115 50.6758 86.7956 50.4362 87.1367C50.1966 87.4753 49.8815 87.7005 49.4909 87.8125V87.8555C49.7929 87.9128 50.0638 88.0404 50.3034 88.2383C50.5429 88.4362 50.733 88.6797 50.8737 88.9687C51.0143 89.2552 51.0846 89.5638 51.0846 89.8945C51.0846 90.3164 50.97 90.6953 50.7409 91.0312C50.5143 91.3646 50.2018 91.6276 49.8034 91.8203C49.4075 92.013 48.9544 92.1094 48.444 92.1094ZM48.444 91.4531C48.8242 91.4531 49.1575 91.3854 49.444 91.25C49.733 91.112 49.9583 90.9232 50.1198 90.6836C50.2838 90.444 50.3659 90.1693 50.3659 89.8594C50.3659 89.5391 50.2812 89.2539 50.112 89.0039C49.9427 88.7513 49.7135 88.5521 49.4245 88.4062C49.1354 88.2578 48.8086 88.1836 48.444 88.1836C48.0794 88.1836 47.7513 88.2578 47.4596 88.4062C47.1705 88.5521 46.9414 88.7513 46.7721 89.0039C46.6054 89.2539 46.5221 89.5391 46.5221 89.8594C46.5221 90.1693 46.6015 90.444 46.7604 90.6836C46.9218 90.9232 47.1471 91.112 47.4362 91.25C47.7278 91.3854 48.0638 91.4531 48.444 91.4531ZM48.444 87.5586C48.7565 87.5586 49.0364 87.4922 49.2838 87.3594C49.5312 87.2266 49.7265 87.0456 49.8698 86.8164C50.0156 86.5846 50.0898 86.3216 50.0924 86.0273C50.0898 85.7357 50.0169 85.4779 49.8737 85.2539C49.7304 85.0273 49.5351 84.8516 49.2877 84.7266C49.0429 84.599 48.7617 84.5352 48.444 84.5352C48.1263 84.5352 47.8424 84.599 47.5924 84.7266C47.345 84.8516 47.1497 85.0273 47.0065 85.2539C46.8659 85.4779 46.7968 85.7357 46.7995 86.0273C46.7968 86.3216 46.8672 86.5846 47.0104 86.8164C47.1562 87.0456 47.3528 87.2266 47.6002 87.3594C47.8502 87.4922 48.1315 87.5586 48.444 87.5586ZM56.5111 92.1094C55.9486 92.1094 55.4681 91.9479 55.0696 91.625C54.6738 91.2995 54.3691 90.8294 54.1556 90.2148C53.9446 89.6003 53.8392 88.862 53.8392 88C53.8392 87.1406 53.9446 86.4049 54.1556 85.793C54.3691 85.1784 54.6751 84.7083 55.0736 84.3828C55.4746 84.0547 55.9538 83.8906 56.5111 83.8906C57.0683 83.8906 57.5462 84.0547 57.9446 84.3828C58.3457 84.7083 58.6517 85.1784 58.8626 85.793C59.0762 86.4049 59.1829 87.1406 59.1829 88C59.1829 88.862 59.0762 89.6003 58.8626 90.2148C58.6517 90.8294 58.347 91.2995 57.9486 91.625C57.5527 91.9479 57.0736 92.1094 56.5111 92.1094ZM56.5111 91.4531C57.1282 91.4531 57.61 91.1523 57.9564 90.5508C58.3027 89.9466 58.4759 89.0964 58.4759 88C58.4759 87.2708 58.3965 86.6484 58.2376 86.1328C58.0814 85.6146 57.8561 85.2187 57.5618 84.9453C57.2702 84.6719 56.9199 84.5352 56.5111 84.5352C55.8991 84.5352 55.4186 84.8398 55.0696 85.4492C54.7207 86.056 54.5462 86.9062 54.5462 88C54.5462 88.7292 54.6243 89.3516 54.7806 89.8672C54.9394 90.3828 55.1647 90.776 55.4564 91.0469C55.7506 91.3177 56.1022 91.4531 56.5111 91.4531ZM66.1396 90.5156V90.1523C66.1396 89.8529 66.1995 89.5833 66.3193 89.3437C66.4391 89.1016 66.6097 88.9102 66.8311 88.7695C67.0524 88.6289 67.3154 88.5586 67.6201 88.5586C67.9274 88.5586 68.1904 88.6289 68.4092 88.7695C68.6279 88.9102 68.7959 89.1016 68.9131 89.3437C69.0303 89.5833 69.0889 89.8529 69.0889 90.1523V90.5156C69.0889 90.8151 69.029 91.0846 68.9092 91.3242C68.792 91.5638 68.624 91.7552 68.4053 91.8984C68.1865 92.0391 67.9248 92.1094 67.6201 92.1094C67.3102 92.1094 67.0446 92.0391 66.8232 91.8984C66.6045 91.7552 66.4352 91.5638 66.3154 91.3242C66.1982 91.0846 66.1396 90.8151 66.1396 90.5156ZM66.7529 90.1523V90.5156C66.7529 90.8099 66.8245 91.0612 66.9678 91.2695C67.1136 91.4753 67.3311 91.5781 67.6201 91.5781C67.9014 91.5781 68.1136 91.4753 68.2568 91.2695C68.4001 91.0612 68.4717 90.8099 68.4717 90.5156V90.1523C68.4717 89.8581 68.4014 89.6081 68.2607 89.4023C68.1201 89.194 67.9066 89.0898 67.6201 89.0898C67.3363 89.0898 67.1201 89.194 66.9717 89.4023C66.8258 89.6081 66.7529 89.8581 66.7529 90.1523ZM62.1084 85.8477V85.4844C62.1084 85.1849 62.1683 84.9154 62.2881 84.6758C62.4079 84.4362 62.5785 84.2461 62.7998 84.1055C63.0212 83.9622 63.2842 83.8906 63.5889 83.8906C63.8962 83.8906 64.1592 83.9622 64.3779 84.1055C64.5967 84.2461 64.7646 84.4362 64.8818 84.6758C64.999 84.9154 65.0576 85.1849 65.0576 85.4844V85.8477C65.0576 86.1471 64.9977 86.418 64.8779 86.6602C64.7607 86.8997 64.5928 87.0898 64.374 87.2305C64.1553 87.3711 63.8936 87.4414 63.5889 87.4414C63.279 87.4414 63.0133 87.3711 62.792 87.2305C62.5732 87.0898 62.404 86.8997 62.2842 86.6602C62.167 86.418 62.1084 86.1471 62.1084 85.8477ZM62.7217 85.4844V85.8477C62.7217 86.1419 62.7933 86.3932 62.9365 86.6016C63.0824 86.8073 63.2998 86.9102 63.5889 86.9102C63.8701 86.9102 64.0824 86.8073 64.2256 86.6016C64.3688 86.3932 64.4404 86.1419 64.4404 85.8477V85.4844C64.4404 85.1901 64.3701 84.9401 64.2295 84.7344C64.0889 84.526 63.8753 84.4219 63.5889 84.4219C63.305 84.4219 63.0889 84.526 62.9404 84.7344C62.7946 84.9401 62.7217 85.1901 62.7217 85.4844ZM62.4678 92L67.9639 84H68.6553L63.1592 92H62.4678Z" fill="var(--text-color)"/>
<path d="M42.2109 16V24H41.4804V16.7656H41.4336L39.5586 18.0117V17.2539L41.4492 16H42.2109ZM48.445 24.1094C47.8825 24.1094 47.402 23.9479 47.0036 23.625C46.6077 23.2995 46.303 22.8294 46.0895 22.2148C45.8786 21.6003 45.7731 20.862 45.7731 20C45.7731 19.1406 45.8786 18.4049 46.0895 17.793C46.303 17.1784 46.609 16.7083 47.0075 16.3828C47.4085 16.0547 47.8877 15.8906 48.445 15.8906C49.0023 15.8906 49.4801 16.0547 49.8786 16.3828C50.2796 16.7083 50.5856 17.1784 50.7965 17.793C51.0101 18.4049 51.1168 19.1406 51.1168 20C51.1168 20.862 51.0101 21.6003 50.7965 22.2148C50.5856 22.8294 50.2809 23.2995 49.8825 23.625C49.4866 23.9479 49.0075 24.1094 48.445 24.1094ZM48.445 23.4531C49.0621 23.4531 49.5439 23.1523 49.8903 22.5508C50.2366 21.9466 50.4098 21.0964 50.4098 20C50.4098 19.2708 50.3304 18.6484 50.1715 18.1328C50.0153 17.6146 49.79 17.2187 49.4957 16.9453C49.2041 16.6719 48.8538 16.5352 48.445 16.5352C47.833 16.5352 47.3525 16.8398 47.0036 17.4492C46.6546 18.056 46.4801 18.9062 46.4801 20C46.4801 20.7292 46.5582 21.3516 46.7145 21.8672C46.8733 22.3828 47.0986 22.776 47.3903 23.0469C47.6845 23.3177 48.0361 23.4531 48.445 23.4531ZM56.5111 24.1094C55.9486 24.1094 55.4681 23.9479 55.0696 23.625C54.6738 23.2995 54.3691 22.8294 54.1556 22.2148C53.9446 21.6003 53.8392 20.862 53.8392 20C53.8392 19.1406 53.9446 18.4049 54.1556 17.793C54.3691 17.1784 54.6751 16.7083 55.0736 16.3828C55.4746 16.0547 55.9538 15.8906 56.5111 15.8906C57.0683 15.8906 57.5462 16.0547 57.9446 16.3828C58.3457 16.7083 58.6517 17.1784 58.8626 17.793C59.0762 18.4049 59.1829 19.1406 59.1829 20C59.1829 20.862 59.0762 21.6003 58.8626 22.2148C58.6517 22.8294 58.347 23.2995 57.9486 23.625C57.5527 23.9479 57.0736 24.1094 56.5111 24.1094ZM56.5111 23.4531C57.1282 23.4531 57.61 23.1523 57.9564 22.5508C58.3027 21.9466 58.4759 21.0964 58.4759 20C58.4759 19.2708 58.3965 18.6484 58.2376 18.1328C58.0814 17.6146 57.8561 17.2187 57.5618 16.9453C57.2702 16.6719 56.9199 16.5352 56.5111 16.5352C55.8991 16.5352 55.4186 16.8398 55.0696 17.4492C54.7207 18.056 54.5462 18.9062 54.5462 20C54.5462 20.7292 54.6243 21.3516 54.7806 21.8672C54.9394 22.3828 55.1647 22.776 55.4564 23.0469C55.7506 23.3177 56.1022 23.4531 56.5111 23.4531ZM66.1396 22.5156V22.1523C66.1396 21.8529 66.1995 21.5833 66.3193 21.3437C66.4391 21.1016 66.6097 20.9102 66.8311 20.7695C67.0524 20.6289 67.3154 20.5586 67.6201 20.5586C67.9274 20.5586 68.1904 20.6289 68.4092 20.7695C68.6279 20.9102 68.7959 21.1016 68.9131 21.3437C69.0303 21.5833 69.0889 21.8529 69.0889 22.1523V22.5156C69.0889 22.8151 69.029 23.0846 68.9092 23.3242C68.792 23.5638 68.624 23.7552 68.4053 23.8984C68.1865 24.0391 67.9248 24.1094 67.6201 24.1094C67.3102 24.1094 67.0446 24.0391 66.8232 23.8984C66.6045 23.7552 66.4352 23.5638 66.3154 23.3242C66.1982 23.0846 66.1396 22.8151 66.1396 22.5156ZM66.7529 22.1523V22.5156C66.7529 22.8099 66.8245 23.0612 66.9678 23.2695C67.1136 23.4753 67.3311 23.5781 67.6201 23.5781C67.9014 23.5781 68.1136 23.4753 68.2568 23.2695C68.4001 23.0612 68.4717 22.8099 68.4717 22.5156V22.1523C68.4717 21.8581 68.4014 21.6081 68.2607 21.4023C68.1201 21.194 67.9066 21.0898 67.6201 21.0898C67.3363 21.0898 67.1201 21.194 66.9717 21.4023C66.8258 21.6081 66.7529 21.8581 66.7529 22.1523ZM62.1084 17.8477V17.4844C62.1084 17.1849 62.1683 16.9154 62.2881 16.6758C62.4079 16.4362 62.5785 16.2461 62.7998 16.1055C63.0212 15.9622 63.2842 15.8906 63.5889 15.8906C63.8962 15.8906 64.1592 15.9622 64.3779 16.1055C64.5967 16.2461 64.7646 16.4362 64.8818 16.6758C64.999 16.9154 65.0576 17.1849 65.0576 17.4844V17.8477C65.0576 18.1471 64.9977 18.418 64.8779 18.6602C64.7607 18.8997 64.5928 19.0898 64.374 19.2305C64.1553 19.3711 63.8936 19.4414 63.5889 19.4414C63.279 19.4414 63.0133 19.3711 62.792 19.2305C62.5732 19.0898 62.404 18.8997 62.2842 18.6602C62.167 18.418 62.1084 18.1471 62.1084 17.8477ZM62.7217 17.4844V17.8477C62.7217 18.1419 62.7933 18.3932 62.9365 18.6016C63.0824 18.8073 63.2998 18.9102 63.5889 18.9102C63.8701 18.9102 64.0824 18.8073 64.2256 18.6016C64.3688 18.3932 64.4404 18.1419 64.4404 17.8477V17.4844C64.4404 17.1901 64.3701 16.9401 64.2295 16.7344C64.0889 16.526 63.8753 16.4219 63.5889 16.4219C63.305 16.4219 63.0889 16.526 62.9404 16.7344C62.7946 16.9401 62.7217 17.1901 62.7217 17.4844ZM62.4678 24L67.9639 16H68.6553L63.1592 24H62.4678Z" fill="var(--text-color)"/>
<line x1="82" y1="19.5" x2="380" y2="19.5" stroke="#373434"/>
<line x1="82" y1="87.5" x2="380" y2="87.5" stroke="#373434"/>
<line x1="82" y1="155.5" x2="380" y2="155.5" stroke="#373434"/>
<line x1="82" y1="223.5" x2="380" y2="223.5" stroke="#373434"/>
<line x1="82" y1="291.5" x2="380" y2="291.5" stroke="#373434"/>
<line x1="117.5" y1="358" x2="117.5" y2="20" stroke="#373434"/>
<line x1="154.5" y1="358" x2="154.5" y2="20" stroke="#373434"/>
<line x1="192.5" y1="358" x2="192.5" y2="20" stroke="#373434"/>
<line x1="229.5" y1="358" x2="229.5" y2="20" stroke="#373434"/>
<line x1="267.5" y1="359" x2="267.5" y2="21" stroke="#373434"/>
<line x1="304.5" y1="359" x2="304.5" y2="21" stroke="#373434"/>
<line x1="342.5" y1="359" x2="342.5" y2="21" stroke="#373434"/>
<line x1="379.5" y1="359" x2="379.5" y2="21" stroke="#373434"/>
<path d="M186.667 237C186.667 239.946 189.054 242.333 192 242.333C194.946 242.333 197.333 239.946 197.333 237C197.333 234.054 194.946 231.667 192 231.667C189.054 231.667 186.667 234.054 186.667 237ZM153.333 210.745C157.665 214.626 171.306 225.427 191.476 237.851L192.524 236.149C172.434 223.773 158.893 213.041 154.667 209.255L153.333 210.745Z" fill="var(--text-highlight)"/>
<path d="M148.667 210C148.667 212.946 151.054 215.333 154 215.333C156.946 215.333 159.333 212.946 159.333 210C159.333 207.054 156.946 204.667 154 204.667C151.054 204.667 148.667 207.054 148.667 210ZM116.083 162.4C118.507 167.959 123.268 177.018 129.696 186.199C136.118 195.371 144.254 204.735 153.447 210.833L154.553 209.167C145.657 203.265 137.691 194.129 131.334 185.051C124.984 175.982 120.289 167.041 117.917 161.6L116.083 162.4Z" fill="var(--text-highlight)"/>
<path d="M76.6667 20C76.6667 22.9455 79.0545 25.3333 82 25.3333C84.9455 25.3333 87.3333 22.9455 87.3333 20C87.3333 17.0545 84.9455 14.6667 82 14.6667C79.0545 14.6667 76.6667 17.0545 76.6667 20ZM111.667 162C111.667 164.946 114.054 167.333 117 167.333C119.946 167.333 122.333 164.946 122.333 162C122.333 159.054 119.946 156.667 117 156.667C114.054 156.667 111.667 159.054 111.667 162ZM81.0125 20.1576C86.0116 51.4855 100.026 123.862 116.077 162.385L117.923 161.615C101.974 123.338 87.9884 51.1812 82.9875 19.8424L81.0125 20.1576Z" fill="var(--text-highlight)"/>
<path d="M223.667 252C223.667 254.946 226.054 257.333 229 257.333C231.946 257.333 234.333 254.946 234.333 252C234.333 249.054 231.946 246.667 229 246.667C226.054 246.667 223.667 249.054 223.667 252ZM191.445 237.832C196.536 241.226 211.047 248.945 228.778 252.975L229.222 251.025C211.753 247.055 197.464 239.441 192.555 236.168L191.445 237.832Z" fill="var(--text-highlight)"/>
<path d="M261.667 263C261.667 265.946 264.054 268.333 267 268.333C269.946 268.333 272.333 265.946 272.333 263C272.333 260.054 269.946 257.667 267 257.667C264.054 257.667 261.667 260.054 261.667 263ZM228.6 252.916C233.505 255.059 247.941 260.235 266.805 263.981L267.195 262.019C248.459 258.299 234.162 253.163 229.4 251.084L228.6 252.916Z" fill="var(--text-highlight)"/>
<path d="M298.667 273C298.667 275.946 301.054 278.333 304 278.333C306.946 278.333 309.333 275.946 309.333 273C309.333 270.054 306.946 267.667 304 267.667C301.054 267.667 298.667 270.054 298.667 273ZM266.636 263.931C271.153 265.695 284.845 270.145 303.802 273.98L304.198 272.02C285.332 268.203 271.754 263.783 267.364 262.069L266.636 263.931Z" fill="var(--text-highlight)"/>
<path d="M336.667 282C336.667 284.946 339.054 287.333 342 287.333C344.946 287.333 347.333 284.946 347.333 282C347.333 279.054 344.946 276.667 342 276.667C339.054 276.667 336.667 279.054 336.667 282ZM303.673 273.945C308.234 275.522 322.186 279.511 341.826 282.985L342.174 281.015C322.614 277.556 308.766 273.59 304.327 272.055L303.673 273.945Z" fill="var(--text-highlight)"/>
<path d="M342 282C347.5 283.19 362.6 285.857 379 287" stroke="var(--text-highlight)" stroke-width="2"/>
<path d="M241.555 250.109C241.018 250.109 240.539 250.017 240.117 249.832C239.698 249.647 239.366 249.391 239.121 249.062C238.879 248.732 238.749 248.349 238.73 247.914H239.957C239.973 248.151 240.052 248.357 240.195 248.531C240.341 248.703 240.531 248.836 240.766 248.93C241 249.023 241.26 249.07 241.547 249.07C241.862 249.07 242.141 249.016 242.383 248.906C242.628 248.797 242.819 248.645 242.957 248.449C243.095 248.251 243.164 248.023 243.164 247.766C243.164 247.497 243.095 247.262 242.957 247.059C242.822 246.853 242.622 246.691 242.359 246.574C242.099 246.457 241.784 246.398 241.414 246.398H240.738V245.414H241.414C241.711 245.414 241.971 245.361 242.195 245.254C242.422 245.147 242.599 244.999 242.727 244.809C242.854 244.616 242.918 244.391 242.918 244.133C242.918 243.885 242.862 243.671 242.75 243.488C242.641 243.303 242.484 243.159 242.281 243.055C242.081 242.951 241.844 242.898 241.57 242.898C241.31 242.898 241.066 242.947 240.84 243.043C240.616 243.137 240.434 243.272 240.293 243.449C240.152 243.624 240.077 243.833 240.066 244.078H238.898C238.911 243.646 239.039 243.266 239.281 242.937C239.526 242.609 239.849 242.353 240.25 242.168C240.651 241.983 241.096 241.891 241.586 241.891C242.099 241.891 242.542 241.991 242.914 242.191C243.289 242.389 243.578 242.654 243.781 242.984C243.987 243.315 244.089 243.677 244.086 244.07C244.089 244.518 243.964 244.898 243.711 245.211C243.461 245.523 243.128 245.733 242.711 245.84V245.902C243.242 245.983 243.654 246.194 243.945 246.535C244.24 246.876 244.385 247.299 244.383 247.805C244.385 248.245 244.263 248.639 244.016 248.988C243.771 249.337 243.436 249.612 243.012 249.812C242.587 250.01 242.102 250.109 241.555 250.109ZM249.965 250.109C249.428 250.109 248.949 250.017 248.527 249.832C248.108 249.647 247.776 249.391 247.531 249.062C247.289 248.732 247.159 248.349 247.14 247.914H248.367C248.382 248.151 248.462 248.357 248.605 248.531C248.751 248.703 248.941 248.836 249.175 248.93C249.41 249.023 249.67 249.07 249.957 249.07C250.272 249.07 250.55 249.016 250.793 248.906C251.037 248.797 251.229 248.645 251.367 248.449C251.505 248.251 251.574 248.023 251.574 247.766C251.574 247.497 251.505 247.262 251.367 247.059C251.231 246.853 251.032 246.691 250.769 246.574C250.509 246.457 250.194 246.398 249.824 246.398H249.148V245.414H249.824C250.121 245.414 250.381 245.361 250.605 245.254C250.832 245.147 251.009 244.999 251.136 244.809C251.264 244.616 251.328 244.391 251.328 244.133C251.328 243.885 251.272 243.671 251.16 243.488C251.05 243.303 250.894 243.159 250.691 243.055C250.491 242.951 250.254 242.898 249.98 242.898C249.72 242.898 249.476 242.947 249.25 243.043C249.026 243.137 248.843 243.272 248.703 243.449C248.562 243.624 248.487 243.833 248.476 244.078H247.308C247.321 243.646 247.449 243.266 247.691 242.937C247.936 242.609 248.259 242.353 248.66 242.168C249.061 241.983 249.506 241.891 249.996 241.891C250.509 241.891 250.952 241.991 251.324 242.191C251.699 242.389 251.988 242.654 252.191 242.984C252.397 243.315 252.498 243.677 252.496 244.07C252.498 244.518 252.373 244.898 252.121 245.211C251.871 245.523 251.537 245.733 251.121 245.84V245.902C251.652 245.983 252.063 246.194 252.355 246.535C252.649 246.876 252.795 247.299 252.793 247.805C252.795 248.245 252.673 248.639 252.425 248.988C252.181 249.337 251.846 249.612 251.422 249.812C250.997 250.01 250.511 250.109 249.965 250.109ZM259.765 248.5V248.078C259.765 247.776 259.827 247.5 259.952 247.25C260.08 246.997 260.265 246.796 260.507 246.645C260.752 246.491 261.048 246.414 261.394 246.414C261.748 246.414 262.045 246.49 262.285 246.641C262.524 246.792 262.705 246.993 262.827 247.246C262.952 247.499 263.015 247.776 263.015 248.078V248.5C263.015 248.802 262.952 249.079 262.827 249.332C262.702 249.582 262.519 249.784 262.277 249.937C262.037 250.089 261.743 250.164 261.394 250.164C261.042 250.164 260.745 250.089 260.503 249.937C260.261 249.784 260.077 249.582 259.952 249.332C259.827 249.079 259.765 248.802 259.765 248.5ZM260.675 248.078V248.5C260.675 248.724 260.729 248.927 260.835 249.109C260.942 249.292 261.128 249.383 261.394 249.383C261.657 249.383 261.841 249.292 261.945 249.109C262.049 248.927 262.101 248.724 262.101 248.5V248.078C262.101 247.854 262.05 247.651 261.949 247.469C261.85 247.286 261.665 247.195 261.394 247.195C261.133 247.195 260.949 247.286 260.839 247.469C260.73 247.651 260.675 247.854 260.675 248.078ZM255.742 243.922V243.5C255.742 243.198 255.804 242.921 255.929 242.668C256.057 242.415 256.242 242.214 256.484 242.062C256.729 241.911 257.024 241.836 257.37 241.836C257.725 241.836 258.022 241.911 258.261 242.062C258.501 242.214 258.682 242.415 258.804 242.668C258.926 242.921 258.988 243.198 258.988 243.5V243.922C258.988 244.224 258.925 244.501 258.8 244.754C258.678 245.004 258.495 245.206 258.253 245.359C258.014 245.51 257.719 245.586 257.37 245.586C257.016 245.586 256.718 245.51 256.476 245.359C256.236 245.206 256.054 245.004 255.929 244.754C255.804 244.501 255.742 244.224 255.742 243.922ZM256.656 243.5V243.922C256.656 244.146 256.708 244.349 256.812 244.531C256.919 244.714 257.105 244.805 257.37 244.805C257.631 244.805 257.813 244.714 257.917 244.531C258.024 244.349 258.077 244.146 258.077 243.922V243.5C258.077 243.276 258.027 243.073 257.925 242.891C257.824 242.708 257.639 242.617 257.37 242.617C257.11 242.617 256.925 242.708 256.816 242.891C256.709 243.073 256.656 243.276 256.656 243.5ZM256.113 250L261.613 242H262.546L257.046 250H256.113Z" fill="var(--text-highlight)"/>
<path d="M277.77 262V261.125L280.477 258.32C280.766 258.016 281.004 257.749 281.191 257.52C281.382 257.288 281.523 257.068 281.617 256.859C281.711 256.651 281.758 256.43 281.758 256.195C281.758 255.93 281.695 255.701 281.57 255.508C281.445 255.313 281.275 255.163 281.059 255.059C280.842 254.952 280.599 254.898 280.328 254.898C280.042 254.898 279.792 254.957 279.578 255.074C279.365 255.191 279.201 255.357 279.086 255.57C278.971 255.784 278.914 256.034 278.914 256.32H277.762C277.762 255.833 277.874 255.408 278.098 255.043C278.322 254.678 278.629 254.396 279.02 254.195C279.41 253.992 279.854 253.891 280.352 253.891C280.854 253.891 281.297 253.991 281.68 254.191C282.065 254.389 282.366 254.66 282.582 255.004C282.798 255.345 282.906 255.73 282.906 256.16C282.906 256.457 282.85 256.747 282.738 257.031C282.629 257.315 282.438 257.632 282.164 257.98C281.891 258.327 281.51 258.747 281.023 259.242L279.434 260.906V260.965H283.035V262H277.77ZM288.539 262.109C287.979 262.109 287.484 262.013 287.054 261.82C286.627 261.628 286.293 261.362 286.05 261.023C285.808 260.685 285.688 260.299 285.691 259.867C285.688 259.529 285.757 259.217 285.898 258.934C286.041 258.647 286.235 258.409 286.48 258.219C286.725 258.026 286.998 257.904 287.3 257.852V257.805C286.902 257.708 286.583 257.495 286.343 257.164C286.104 256.833 285.985 256.453 285.988 256.023C285.985 255.615 286.093 255.25 286.312 254.93C286.534 254.607 286.837 254.353 287.222 254.168C287.608 253.983 288.047 253.891 288.539 253.891C289.026 253.891 289.461 253.984 289.843 254.172C290.229 254.357 290.532 254.611 290.754 254.934C290.975 255.254 291.087 255.617 291.09 256.023C291.087 256.453 290.965 256.833 290.722 257.164C290.48 257.495 290.165 257.708 289.777 257.805V257.852C290.077 257.904 290.346 258.026 290.586 258.219C290.828 258.409 291.021 258.647 291.164 258.934C291.31 259.217 291.384 259.529 291.386 259.867C291.384 260.299 291.261 260.685 291.019 261.023C290.777 261.362 290.441 261.628 290.011 261.82C289.584 262.013 289.093 262.109 288.539 262.109ZM288.539 261.121C288.869 261.121 289.156 261.066 289.398 260.957C289.64 260.845 289.828 260.69 289.961 260.492C290.093 260.292 290.161 260.057 290.164 259.789C290.161 259.51 290.088 259.264 289.945 259.051C289.804 258.837 289.613 258.669 289.371 258.547C289.129 258.424 288.851 258.363 288.539 258.363C288.224 258.363 287.944 258.424 287.699 258.547C287.454 258.669 287.261 258.837 287.121 259.051C286.98 259.264 286.911 259.51 286.914 259.789C286.911 260.057 286.975 260.292 287.105 260.492C287.238 260.69 287.427 260.845 287.672 260.957C287.916 261.066 288.205 261.121 288.539 261.121ZM288.539 257.398C288.804 257.398 289.04 257.345 289.246 257.238C289.452 257.132 289.613 256.983 289.73 256.793C289.85 256.603 289.911 256.38 289.914 256.125C289.911 255.875 289.851 255.656 289.734 255.469C289.619 255.281 289.459 255.137 289.254 255.035C289.048 254.931 288.81 254.879 288.539 254.879C288.263 254.879 288.021 254.931 287.812 255.035C287.606 255.137 287.446 255.281 287.332 255.469C287.217 255.656 287.161 255.875 287.164 256.125C287.161 256.38 287.218 256.603 287.336 256.793C287.453 256.983 287.614 257.132 287.82 257.238C288.028 257.345 288.268 257.398 288.539 257.398ZM298.282 260.5V260.078C298.282 259.776 298.344 259.5 298.469 259.25C298.597 258.997 298.782 258.796 299.024 258.645C299.269 258.491 299.564 258.414 299.911 258.414C300.265 258.414 300.562 258.49 300.801 258.641C301.041 258.792 301.222 258.993 301.344 259.246C301.469 259.499 301.532 259.776 301.532 260.078V260.5C301.532 260.802 301.469 261.079 301.344 261.332C301.219 261.582 301.036 261.784 300.793 261.937C300.554 262.089 300.259 262.164 299.911 262.164C299.559 262.164 299.262 262.089 299.02 261.937C298.778 261.784 298.594 261.582 298.469 261.332C298.344 261.079 298.282 260.802 298.282 260.5ZM299.192 260.078V260.5C299.192 260.724 299.245 260.927 299.352 261.109C299.459 261.292 299.645 261.383 299.911 261.383C300.174 261.383 300.357 261.292 300.461 261.109C300.565 260.927 300.618 260.724 300.618 260.5V260.078C300.618 259.854 300.567 259.651 300.465 259.469C300.366 259.286 300.181 259.195 299.911 259.195C299.65 259.195 299.465 259.286 299.356 259.469C299.246 259.651 299.192 259.854 299.192 260.078ZM294.258 255.922V255.5C294.258 255.198 294.321 254.921 294.446 254.668C294.573 254.415 294.758 254.214 295 254.062C295.245 253.911 295.541 253.836 295.887 253.836C296.241 253.836 296.538 253.911 296.778 254.062C297.017 254.214 297.198 254.415 297.321 254.668C297.443 254.921 297.504 255.198 297.504 255.5V255.922C297.504 256.224 297.442 256.501 297.317 256.754C297.194 257.004 297.012 257.206 296.77 257.359C296.53 257.51 296.236 257.586 295.887 257.586C295.533 257.586 295.235 257.51 294.993 257.359C294.753 257.206 294.571 257.004 294.446 256.754C294.321 256.501 294.258 256.224 294.258 255.922ZM295.172 255.5V255.922C295.172 256.146 295.224 256.349 295.328 256.531C295.435 256.714 295.621 256.805 295.887 256.805C296.147 256.805 296.33 256.714 296.434 256.531C296.541 256.349 296.594 256.146 296.594 255.922V255.5C296.594 255.276 296.543 255.073 296.442 254.891C296.34 254.708 296.155 254.617 295.887 254.617C295.627 254.617 295.442 254.708 295.332 254.891C295.226 255.073 295.172 255.276 295.172 255.5ZM294.629 262L300.129 254H301.063L295.563 262H294.629Z" fill="var(--text-highlight)"/>
<path d="M314.77 266V265.125L317.477 262.32C317.766 262.016 318.004 261.749 318.191 261.52C318.382 261.288 318.523 261.068 318.617 260.859C318.711 260.651 318.758 260.43 318.758 260.195C318.758 259.93 318.695 259.701 318.57 259.508C318.445 259.313 318.275 259.163 318.059 259.059C317.842 258.952 317.599 258.898 317.328 258.898C317.042 258.898 316.792 258.957 316.578 259.074C316.365 259.191 316.201 259.357 316.086 259.57C315.971 259.784 315.914 260.034 315.914 260.32H314.762C314.762 259.833 314.874 259.408 315.098 259.043C315.322 258.678 315.629 258.396 316.02 258.195C316.41 257.992 316.854 257.891 317.352 257.891C317.854 257.891 318.297 257.991 318.68 258.191C319.065 258.389 319.366 258.66 319.582 259.004C319.798 259.345 319.906 259.73 319.906 260.16C319.906 260.457 319.85 260.747 319.738 261.031C319.629 261.315 319.438 261.632 319.164 261.98C318.891 262.327 318.51 262.747 318.023 263.242L316.434 264.906V264.965H320.035V266H314.77ZM325.476 266.109C324.987 266.109 324.547 266.016 324.156 265.828C323.768 265.638 323.458 265.378 323.226 265.047C322.994 264.716 322.871 264.339 322.855 263.914H324.027C324.056 264.258 324.208 264.54 324.484 264.762C324.76 264.983 325.091 265.094 325.476 265.094C325.784 265.094 326.056 265.023 326.293 264.883C326.532 264.74 326.72 264.543 326.855 264.293C326.993 264.043 327.062 263.758 327.062 263.437C327.062 263.112 326.992 262.822 326.851 262.566C326.711 262.311 326.517 262.111 326.269 261.965C326.024 261.819 325.743 261.745 325.425 261.742C325.183 261.742 324.94 261.784 324.695 261.867C324.45 261.951 324.252 262.06 324.101 262.195L322.996 262.031L323.445 258H327.843V259.035H324.449L324.195 261.273H324.242C324.398 261.122 324.605 260.996 324.863 260.895C325.123 260.793 325.402 260.742 325.699 260.742C326.186 260.742 326.619 260.858 327 261.09C327.382 261.322 327.683 261.638 327.902 262.039C328.123 262.437 328.233 262.896 328.23 263.414C328.233 263.932 328.116 264.395 327.879 264.801C327.644 265.207 327.319 265.527 326.902 265.762C326.488 265.993 326.013 266.109 325.476 266.109ZM335.153 264.5V264.078C335.153 263.776 335.215 263.5 335.34 263.25C335.468 262.997 335.653 262.796 335.895 262.645C336.14 262.491 336.435 262.414 336.782 262.414C337.136 262.414 337.433 262.49 337.672 262.641C337.912 262.792 338.093 262.993 338.215 263.246C338.34 263.499 338.403 263.776 338.403 264.078V264.5C338.403 264.802 338.34 265.079 338.215 265.332C338.09 265.582 337.907 265.784 337.664 265.937C337.425 266.089 337.131 266.164 336.782 266.164C336.43 266.164 336.133 266.089 335.891 265.937C335.649 265.784 335.465 265.582 335.34 265.332C335.215 265.079 335.153 264.802 335.153 264.5ZM336.063 264.078V264.5C336.063 264.724 336.116 264.927 336.223 265.109C336.33 265.292 336.516 265.383 336.782 265.383C337.045 265.383 337.228 265.292 337.332 265.109C337.437 264.927 337.489 264.724 337.489 264.5V264.078C337.489 263.854 337.438 263.651 337.336 263.469C337.237 263.286 337.052 263.195 336.782 263.195C336.521 263.195 336.336 263.286 336.227 263.469C336.118 263.651 336.063 263.854 336.063 264.078ZM331.129 259.922V259.5C331.129 259.198 331.192 258.921 331.317 258.668C331.444 258.415 331.629 258.214 331.871 258.062C332.116 257.911 332.412 257.836 332.758 257.836C333.112 257.836 333.409 257.911 333.649 258.062C333.888 258.214 334.069 258.415 334.192 258.668C334.314 258.921 334.375 259.198 334.375 259.5V259.922C334.375 260.224 334.313 260.501 334.188 260.754C334.065 261.004 333.883 261.206 333.641 261.359C333.401 261.51 333.107 261.586 332.758 261.586C332.404 261.586 332.106 261.51 331.864 261.359C331.624 261.206 331.442 261.004 331.317 260.754C331.192 260.501 331.129 260.224 331.129 259.922ZM332.043 259.5V259.922C332.043 260.146 332.095 260.349 332.2 260.531C332.306 260.714 332.493 260.805 332.758 260.805C333.019 260.805 333.201 260.714 333.305 260.531C333.412 260.349 333.465 260.146 333.465 259.922V259.5C333.465 259.276 333.414 259.073 333.313 258.891C333.211 258.708 333.026 258.617 332.758 258.617C332.498 258.617 332.313 258.708 332.203 258.891C332.097 259.073 332.043 259.276 332.043 259.5ZM331.5 266L337 258H337.934L332.434 266H331.5Z" fill="var(--text-highlight)"/>
<path d="M351.77 275V274.125L354.477 271.32C354.766 271.016 355.004 270.749 355.191 270.52C355.382 270.288 355.523 270.068 355.617 269.859C355.711 269.651 355.758 269.43 355.758 269.195C355.758 268.93 355.695 268.701 355.57 268.508C355.445 268.313 355.275 268.163 355.059 268.059C354.842 267.952 354.599 267.898 354.328 267.898C354.042 267.898 353.792 267.957 353.578 268.074C353.365 268.191 353.201 268.357 353.086 268.57C352.971 268.784 352.914 269.034 352.914 269.32H351.762C351.762 268.833 351.874 268.408 352.098 268.043C352.322 267.678 352.629 267.396 353.02 267.195C353.41 266.992 353.854 266.891 354.352 266.891C354.854 266.891 355.297 266.991 355.68 267.191C356.065 267.389 356.366 267.66 356.582 268.004C356.798 268.345 356.906 268.73 356.906 269.16C356.906 269.457 356.85 269.747 356.738 270.031C356.629 270.315 356.438 270.632 356.164 270.98C355.891 271.327 355.51 271.747 355.023 272.242L353.434 273.906V273.965H357.035V275H351.77ZM362.871 267V275H361.66V268.211H361.613L359.699 269.461V268.305L361.695 267H362.871ZM370.531 273.5V273.078C370.531 272.776 370.593 272.5 370.718 272.25C370.846 271.997 371.031 271.796 371.273 271.645C371.518 271.491 371.813 271.414 372.16 271.414C372.514 271.414 372.811 271.49 373.05 271.641C373.29 271.792 373.471 271.993 373.593 272.246C373.718 272.499 373.781 272.776 373.781 273.078V273.5C373.781 273.802 373.718 274.079 373.593 274.332C373.468 274.582 373.285 274.784 373.042 274.937C372.803 275.089 372.508 275.164 372.16 275.164C371.808 275.164 371.511 275.089 371.269 274.937C371.027 274.784 370.843 274.582 370.718 274.332C370.593 274.079 370.531 273.802 370.531 273.5ZM371.441 273.078V273.5C371.441 273.724 371.494 273.927 371.601 274.109C371.708 274.292 371.894 274.383 372.16 274.383C372.423 274.383 372.606 274.292 372.71 274.109C372.814 273.927 372.867 273.724 372.867 273.5V273.078C372.867 272.854 372.816 272.651 372.714 272.469C372.615 272.286 372.43 272.195 372.16 272.195C371.899 272.195 371.714 272.286 371.605 272.469C371.495 272.651 371.441 272.854 371.441 273.078ZM366.507 268.922V268.5C366.507 268.198 366.57 267.921 366.695 267.668C366.822 267.415 367.007 267.214 367.249 267.062C367.494 266.911 367.79 266.836 368.136 266.836C368.49 266.836 368.787 266.911 369.027 267.062C369.266 267.214 369.447 267.415 369.57 267.668C369.692 267.921 369.753 268.198 369.753 268.5V268.922C369.753 269.224 369.691 269.501 369.566 269.754C369.443 270.004 369.261 270.206 369.019 270.359C368.779 270.51 368.485 270.586 368.136 270.586C367.782 270.586 367.484 270.51 367.242 270.359C367.002 270.206 366.82 270.004 366.695 269.754C366.57 269.501 366.507 269.224 366.507 268.922ZM367.421 268.5V268.922C367.421 269.146 367.473 269.349 367.578 269.531C367.684 269.714 367.87 269.805 368.136 269.805C368.397 269.805 368.579 269.714 368.683 269.531C368.79 269.349 368.843 269.146 368.843 268.922V268.5C368.843 268.276 368.792 268.073 368.691 267.891C368.589 267.708 368.404 267.617 368.136 267.617C367.876 267.617 367.691 267.708 367.581 267.891C367.475 268.073 367.421 268.276 367.421 268.5ZM366.878 275L372.378 267H373.312L367.812 275H366.878Z" fill="var(--text-highlight)"/>
<path d="M165.602 212.438V211.461L169.059 206H169.828V207.437H169.34L166.867 211.352V211.414H171.605V212.438H165.602ZM169.395 214V212.141L169.402 211.695V206H170.547V214H169.395ZM174.119 212.438V211.461L177.576 206H178.345V207.437H177.857L175.384 211.352V211.414H180.123V212.438H174.119ZM177.912 214V212.141L177.92 211.695V206H179.064V214H177.912ZM186.98 212.5V212.078C186.98 211.776 187.042 211.5 187.167 211.25C187.295 210.997 187.48 210.796 187.722 210.645C187.967 210.491 188.262 210.414 188.609 210.414C188.963 210.414 189.26 210.49 189.499 210.641C189.739 210.792 189.92 210.993 190.042 211.246C190.167 211.499 190.23 211.776 190.23 212.078V212.5C190.23 212.802 190.167 213.079 190.042 213.332C189.917 213.582 189.734 213.784 189.492 213.937C189.252 214.089 188.958 214.164 188.609 214.164C188.257 214.164 187.96 214.089 187.718 213.937C187.476 213.784 187.292 213.582 187.167 213.332C187.042 213.079 186.98 212.802 186.98 212.5ZM187.89 212.078V212.5C187.89 212.724 187.943 212.927 188.05 213.109C188.157 213.292 188.343 213.383 188.609 213.383C188.872 213.383 189.055 213.292 189.16 213.109C189.264 212.927 189.316 212.724 189.316 212.5V212.078C189.316 211.854 189.265 211.651 189.163 211.469C189.064 211.286 188.88 211.195 188.609 211.195C188.348 211.195 188.163 211.286 188.054 211.469C187.945 211.651 187.89 211.854 187.89 212.078ZM182.956 207.922V207.5C182.956 207.198 183.019 206.921 183.144 206.668C183.272 206.415 183.456 206.214 183.699 206.062C183.943 205.911 184.239 205.836 184.585 205.836C184.939 205.836 185.236 205.911 185.476 206.062C185.716 206.214 185.897 206.415 186.019 206.668C186.141 206.921 186.202 207.198 186.202 207.5V207.922C186.202 208.224 186.14 208.501 186.015 208.754C185.893 209.004 185.71 209.206 185.468 209.359C185.229 209.51 184.934 209.586 184.585 209.586C184.231 209.586 183.933 209.51 183.691 209.359C183.451 209.206 183.269 209.004 183.144 208.754C183.019 208.501 182.956 208.224 182.956 207.922ZM183.87 207.5V207.922C183.87 208.146 183.923 208.349 184.027 208.531C184.133 208.714 184.32 208.805 184.585 208.805C184.846 208.805 185.028 208.714 185.132 208.531C185.239 208.349 185.292 208.146 185.292 207.922V207.5C185.292 207.276 185.242 207.073 185.14 206.891C185.038 206.708 184.854 206.617 184.585 206.617C184.325 206.617 184.14 206.708 184.031 206.891C183.924 207.073 183.87 207.276 183.87 207.5ZM183.327 214L188.827 206H189.761L184.261 214H183.327Z" fill="var(--text-highlight)"/>
<path d="M205.555 241.109C205.018 241.109 204.539 241.017 204.117 240.832C203.698 240.647 203.366 240.391 203.121 240.062C202.879 239.732 202.749 239.349 202.73 238.914H203.957C203.973 239.151 204.052 239.357 204.195 239.531C204.341 239.703 204.531 239.836 204.766 239.93C205 240.023 205.26 240.07 205.547 240.07C205.862 240.07 206.141 240.016 206.383 239.906C206.628 239.797 206.819 239.645 206.957 239.449C207.095 239.251 207.164 239.023 207.164 238.766C207.164 238.497 207.095 238.262 206.957 238.059C206.822 237.853 206.622 237.691 206.359 237.574C206.099 237.457 205.784 237.398 205.414 237.398H204.738V236.414H205.414C205.711 236.414 205.971 236.361 206.195 236.254C206.422 236.147 206.599 235.999 206.727 235.809C206.854 235.616 206.918 235.391 206.918 235.133C206.918 234.885 206.862 234.671 206.75 234.488C206.641 234.303 206.484 234.159 206.281 234.055C206.081 233.951 205.844 233.898 205.57 233.898C205.31 233.898 205.066 233.947 204.84 234.043C204.616 234.137 204.434 234.272 204.293 234.449C204.152 234.624 204.077 234.833 204.066 235.078H202.898C202.911 234.646 203.039 234.266 203.281 233.937C203.526 233.609 203.849 233.353 204.25 233.168C204.651 232.983 205.096 232.891 205.586 232.891C206.099 232.891 206.542 232.991 206.914 233.191C207.289 233.389 207.578 233.654 207.781 233.984C207.987 234.315 208.089 234.677 208.086 235.07C208.089 235.518 207.964 235.898 207.711 236.211C207.461 236.523 207.128 236.733 206.711 236.84V236.902C207.242 236.983 207.654 237.194 207.945 237.535C208.24 237.876 208.385 238.299 208.383 238.805C208.385 239.245 208.263 239.639 208.016 239.988C207.771 240.337 207.436 240.612 207.012 240.812C206.587 241.01 206.102 241.109 205.555 241.109ZM213.972 241.109C213.616 241.104 213.264 241.039 212.918 240.914C212.574 240.789 212.261 240.581 211.98 240.289C211.699 239.997 211.474 239.605 211.304 239.113C211.138 238.621 211.054 238.007 211.054 237.27C211.054 236.572 211.123 235.952 211.261 235.41C211.402 234.868 211.604 234.411 211.867 234.039C212.13 233.664 212.448 233.379 212.82 233.184C213.192 232.988 213.61 232.891 214.074 232.891C214.55 232.891 214.974 232.984 215.343 233.172C215.713 233.359 216.013 233.618 216.242 233.949C216.474 234.28 216.621 234.656 216.683 235.078H215.492C215.411 234.745 215.251 234.473 215.011 234.262C214.772 234.051 214.459 233.945 214.074 233.945C213.488 233.945 213.031 234.201 212.703 234.711C212.377 235.221 212.213 235.931 212.211 236.84H212.269C212.407 236.613 212.577 236.421 212.777 236.262C212.98 236.1 213.207 235.977 213.457 235.891C213.709 235.802 213.975 235.758 214.254 235.758C214.717 235.758 215.136 235.871 215.511 236.098C215.889 236.322 216.19 236.632 216.414 237.027C216.638 237.423 216.75 237.876 216.75 238.387C216.75 238.897 216.634 239.359 216.402 239.773C216.173 240.187 215.85 240.516 215.433 240.758C215.017 240.997 214.53 241.115 213.972 241.109ZM213.968 240.094C214.276 240.094 214.55 240.018 214.793 239.867C215.035 239.716 215.226 239.513 215.367 239.258C215.507 239.003 215.578 238.717 215.578 238.402C215.578 238.095 215.509 237.815 215.371 237.562C215.235 237.31 215.048 237.109 214.808 236.961C214.571 236.812 214.3 236.738 213.996 236.738C213.764 236.738 213.549 236.783 213.351 236.871C213.156 236.96 212.984 237.082 212.836 237.238C212.687 237.395 212.57 237.574 212.484 237.777C212.401 237.978 212.359 238.19 212.359 238.414C212.359 238.714 212.428 238.991 212.566 239.246C212.707 239.501 212.898 239.707 213.14 239.863C213.385 240.017 213.661 240.094 213.968 240.094ZM223.668 239.5V239.078C223.668 238.776 223.731 238.5 223.856 238.25C223.983 237.997 224.168 237.796 224.411 237.645C224.655 237.491 224.951 237.414 225.297 237.414C225.651 237.414 225.948 237.49 226.188 237.641C226.427 237.792 226.608 237.993 226.731 238.246C226.856 238.499 226.918 238.776 226.918 239.078V239.5C226.918 239.802 226.856 240.079 226.731 240.332C226.606 240.582 226.422 240.784 226.18 240.937C225.94 241.089 225.646 241.164 225.297 241.164C224.946 241.164 224.649 241.089 224.407 240.937C224.164 240.784 223.981 240.582 223.856 240.332C223.731 240.079 223.668 239.802 223.668 239.5ZM224.578 239.078V239.5C224.578 239.724 224.632 239.927 224.739 240.109C224.845 240.292 225.032 240.383 225.297 240.383C225.56 240.383 225.744 240.292 225.848 240.109C225.952 239.927 226.004 239.724 226.004 239.5V239.078C226.004 238.854 225.953 238.651 225.852 238.469C225.753 238.286 225.568 238.195 225.297 238.195C225.037 238.195 224.852 238.286 224.743 238.469C224.633 238.651 224.578 238.854 224.578 239.078ZM219.645 234.922V234.5C219.645 234.198 219.707 233.921 219.832 233.668C219.96 233.415 220.145 233.214 220.387 233.062C220.632 232.911 220.927 232.836 221.274 232.836C221.628 232.836 221.925 232.911 222.164 233.062C222.404 233.214 222.585 233.415 222.707 233.668C222.83 233.921 222.891 234.198 222.891 234.5V234.922C222.891 235.224 222.828 235.501 222.703 235.754C222.581 236.004 222.399 236.206 222.157 236.359C221.917 236.51 221.623 236.586 221.274 236.586C220.92 236.586 220.621 236.51 220.379 236.359C220.14 236.206 219.957 236.004 219.832 235.754C219.707 235.501 219.645 235.224 219.645 234.922ZM220.559 234.5V234.922C220.559 235.146 220.611 235.349 220.715 235.531C220.822 235.714 221.008 235.805 221.274 235.805C221.534 235.805 221.716 235.714 221.821 235.531C221.927 235.349 221.981 235.146 221.981 234.922V234.5C221.981 234.276 221.93 234.073 221.828 233.891C221.727 233.708 221.542 233.617 221.274 233.617C221.013 233.617 220.828 233.708 220.719 233.891C220.612 234.073 220.559 234.276 220.559 234.5ZM220.016 241L225.516 233H226.45L220.95 241H220.016Z" fill="var(--text-highlight)"/>
<path d="M130.41 166.109C129.921 166.109 129.48 166.016 129.09 165.828C128.702 165.638 128.392 165.378 128.16 165.047C127.928 164.716 127.805 164.339 127.789 163.914H128.961C128.99 164.258 129.142 164.54 129.418 164.762C129.694 164.983 130.025 165.094 130.41 165.094C130.717 165.094 130.99 165.023 131.227 164.883C131.466 164.74 131.654 164.543 131.789 164.293C131.927 164.043 131.996 163.758 131.996 163.437C131.996 163.112 131.926 162.822 131.785 162.566C131.645 162.311 131.451 162.111 131.203 161.965C130.958 161.819 130.677 161.745 130.359 161.742C130.117 161.742 129.874 161.784 129.629 161.867C129.384 161.951 129.186 162.06 129.035 162.195L127.93 162.031L128.379 158H132.777V159.035H129.383L129.129 161.273H129.176C129.332 161.122 129.539 160.996 129.797 160.895C130.057 160.793 130.336 160.742 130.633 160.742C131.12 160.742 131.553 160.858 131.934 161.09C132.316 161.322 132.617 161.638 132.836 162.039C133.057 162.437 133.167 162.896 133.164 163.414C133.167 163.932 133.049 164.395 132.813 164.801C132.578 165.207 132.253 165.527 131.836 165.762C131.422 165.993 130.947 166.109 130.41 166.109ZM138.614 166.109C138.054 166.109 137.559 166.013 137.13 165.82C136.702 165.628 136.368 165.362 136.126 165.023C135.883 164.685 135.764 164.299 135.766 163.867C135.764 163.529 135.833 163.217 135.973 162.934C136.117 162.647 136.311 162.409 136.555 162.219C136.8 162.026 137.074 161.904 137.376 161.852V161.805C136.977 161.708 136.658 161.495 136.419 161.164C136.179 160.833 136.061 160.453 136.063 160.023C136.061 159.615 136.169 159.25 136.387 158.93C136.609 158.607 136.912 158.353 137.298 158.168C137.683 157.983 138.122 157.891 138.614 157.891C139.101 157.891 139.536 157.984 139.919 158.172C140.304 158.357 140.607 158.611 140.829 158.934C141.05 159.254 141.162 159.617 141.165 160.023C141.162 160.453 141.04 160.833 140.798 161.164C140.555 161.495 140.24 161.708 139.852 161.805V161.852C140.152 161.904 140.421 162.026 140.661 162.219C140.903 162.409 141.096 162.647 141.239 162.934C141.385 163.217 141.459 163.529 141.462 163.867C141.459 164.299 141.337 164.685 141.094 165.023C140.852 165.362 140.516 165.628 140.087 165.82C139.66 166.013 139.169 166.109 138.614 166.109ZM138.614 165.121C138.945 165.121 139.231 165.066 139.473 164.957C139.716 164.845 139.903 164.69 140.036 164.492C140.169 164.292 140.236 164.057 140.239 163.789C140.236 163.51 140.163 163.264 140.02 163.051C139.88 162.837 139.688 162.669 139.446 162.547C139.204 162.424 138.926 162.363 138.614 162.363C138.299 162.363 138.019 162.424 137.774 162.547C137.529 162.669 137.337 162.837 137.196 163.051C137.055 163.264 136.986 163.51 136.989 163.789C136.986 164.057 137.05 164.292 137.18 164.492C137.313 164.69 137.502 164.845 137.747 164.957C137.992 165.066 138.281 165.121 138.614 165.121ZM138.614 161.398C138.88 161.398 139.115 161.345 139.321 161.238C139.527 161.132 139.688 160.983 139.805 160.793C139.925 160.603 139.986 160.38 139.989 160.125C139.986 159.875 139.926 159.656 139.809 159.469C139.695 159.281 139.535 159.137 139.329 159.035C139.123 158.931 138.885 158.879 138.614 158.879C138.338 158.879 138.096 158.931 137.887 159.035C137.682 159.137 137.521 159.281 137.407 159.469C137.292 159.656 137.236 159.875 137.239 160.125C137.236 160.38 137.294 160.603 137.411 160.793C137.528 160.983 137.689 161.132 137.895 161.238C138.104 161.345 138.343 161.398 138.614 161.398ZM148.357 164.5V164.078C148.357 163.776 148.419 163.5 148.544 163.25C148.672 162.997 148.857 162.796 149.099 162.645C149.344 162.491 149.639 162.414 149.986 162.414C150.34 162.414 150.637 162.49 150.876 162.641C151.116 162.792 151.297 162.993 151.419 163.246C151.544 163.499 151.607 163.776 151.607 164.078V164.5C151.607 164.802 151.544 165.079 151.419 165.332C151.294 165.582 151.111 165.784 150.869 165.937C150.629 166.089 150.335 166.164 149.986 166.164C149.634 166.164 149.337 166.089 149.095 165.937C148.853 165.784 148.669 165.582 148.544 165.332C148.419 165.079 148.357 164.802 148.357 164.5ZM149.267 164.078V164.5C149.267 164.724 149.32 164.927 149.427 165.109C149.534 165.292 149.72 165.383 149.986 165.383C150.249 165.383 150.432 165.292 150.536 165.109C150.641 164.927 150.693 164.724 150.693 164.5V164.078C150.693 163.854 150.642 163.651 150.54 163.469C150.441 163.286 150.257 163.195 149.986 163.195C149.725 163.195 149.54 163.286 149.431 163.469C149.322 163.651 149.267 163.854 149.267 164.078ZM144.333 159.922V159.5C144.333 159.198 144.396 158.921 144.521 158.668C144.648 158.415 144.833 158.214 145.076 158.062C145.32 157.911 145.616 157.836 145.962 157.836C146.316 157.836 146.613 157.911 146.853 158.062C147.092 158.214 147.273 158.415 147.396 158.668C147.518 158.921 147.579 159.198 147.579 159.5V159.922C147.579 160.224 147.517 160.501 147.392 160.754C147.27 161.004 147.087 161.206 146.845 161.359C146.605 161.51 146.311 161.586 145.962 161.586C145.608 161.586 145.31 161.51 145.068 161.359C144.828 161.206 144.646 161.004 144.521 160.754C144.396 160.501 144.333 160.224 144.333 159.922ZM145.247 159.5V159.922C145.247 160.146 145.3 160.349 145.404 160.531C145.51 160.714 145.697 160.805 145.962 160.805C146.223 160.805 146.405 160.714 146.509 160.531C146.616 160.349 146.669 160.146 146.669 159.922V159.5C146.669 159.276 146.619 159.073 146.517 158.891C146.415 158.708 146.23 158.617 145.962 158.617C145.702 158.617 145.517 158.708 145.408 158.891C145.301 159.073 145.247 159.276 145.247 159.5ZM144.704 166L150.204 158H151.138L145.638 166H144.704Z" fill="var(--text-highlight)"/>
</g>
<defs>
<clipPath id="clip0_38_2">
<rect width="400" height="400" fill="white"/>
</clipPath>
</defs>
</svg>
