<svg width="400" height="400" viewBox="0 0 400 400" fill="none" xmlns="http://www.w3.org/2000/svg">
<g clip-path="url(#clip0_42_190)">
<line x1="81" y1="19" x2="81" y2="360" stroke="#373434" stroke-width="2"/>
<line x1="80" y1="359" x2="380" y2="359" stroke="#373434" stroke-width="2"/>
<path d="M31 224.709H20.8182V221.422C20.8182 220.7 20.9491 220.097 21.2109 219.613C21.4695 219.125 21.8291 218.759 22.2898 218.514C22.7472 218.265 23.2725 218.141 23.8658 218.141C24.459 218.141 24.9827 218.265 25.4368 218.514C25.8909 218.759 26.2455 219.124 26.5007 219.608C26.7559 220.092 26.8835 220.692 26.8835 221.407V224.206H26.0334V221.432C26.0334 220.902 25.9455 220.461 25.7699 220.11C25.5942 219.755 25.344 219.492 25.0192 219.319C24.6944 219.144 24.3099 219.056 23.8658 219.056C23.4216 219.056 23.0339 219.144 22.7024 219.319C22.3677 219.495 22.1091 219.76 21.9268 220.115C21.7446 220.466 21.6534 220.91 21.6534 221.447V223.779H31V224.709ZM26.4062 220.219L31 217.714V218.787L26.4062 221.268V220.219ZM31 214.197H20.8182V208.29H21.6534V213.267H25.4865V208.603H26.3217V213.267H30.1648V208.191H31V214.197ZM21.6534 204.82H20.8182V197.438H21.6534V200.664H31V201.594H21.6534V204.82ZM31 193.665H20.8182V187.758H21.6534L21.6534 192.735H25.4865V188.072H26.3217V192.735H30.1648V187.659H31V193.665ZM20.8182 175.742H31V176.647L22.4737 182.663V182.742H31V183.672H20.8182V182.772L29.3544 176.737V176.657H20.8182V175.742ZM21.6534 171.972H20.8182V164.589H21.6534V167.816H31V168.745H21.6534V171.972ZM20.8182 159.886H31V160.816H20.8182V159.886ZM25.9091 147.152C26.9697 147.152 27.8928 147.341 28.6783 147.719C29.4605 148.097 30.067 148.617 30.4979 149.28C30.9254 149.939 31.1392 150.698 31.1392 151.557C31.1392 152.415 30.9254 153.176 30.4979 153.839C30.067 154.498 29.4605 155.017 28.6783 155.395C27.8928 155.769 26.9697 155.957 25.9091 155.957C24.8485 155.957 23.9271 155.769 23.1449 155.395C22.3594 155.017 21.7528 154.497 21.3253 153.834C20.8944 153.171 20.679 152.412 20.679 151.557C20.679 150.698 20.8944 149.939 21.3253 149.28C21.7528 148.617 22.3594 148.097 23.1449 147.719C23.9271 147.341 24.8485 147.152 25.9091 147.152ZM25.9091 148.057C24.9976 148.057 24.2171 148.209 23.5675 148.514C22.9145 148.819 22.4157 149.235 22.071 149.762C21.7263 150.289 21.554 150.887 21.554 151.557C21.554 152.223 21.7263 152.82 22.071 153.347C22.4157 153.874 22.9129 154.291 23.5625 154.599C24.2121 154.904 24.9943 155.057 25.9091 155.057C26.8205 155.057 27.6011 154.904 28.2507 154.599C28.9003 154.295 29.3991 153.879 29.7472 153.352C30.0919 152.825 30.2642 152.226 30.2642 151.557C30.2642 150.887 30.0919 150.289 29.7472 149.762C29.4025 149.232 28.9053 148.814 28.2557 148.509C27.6027 148.204 26.8205 148.054 25.9091 148.057ZM20.8182 135.294H31V136.199L22.4737 142.214V142.294H31V143.224H20.8182V142.324L29.3544 136.288V136.209H20.8182V135.294Z" fill="var(--text-color)"/>
<path d="M211.645 390.653V389.818H219.028V390.653H215.802V400H214.872V390.653H211.645ZM223.731 389.818V400H222.801V389.818H223.731ZM228.118 389.818H229.192L232.886 398.688H232.975L236.669 389.818H237.743V400H236.868V391.782H236.789L233.353 400H232.508L229.073 391.782H228.993V400H228.118V389.818ZM242.13 400V389.818H248.036V390.653H243.06V394.487H247.723V395.322H243.06V399.165H248.136V400H242.13Z" fill="var(--text-color)"/>
<path d="M106.619 375V374.465L109.233 371.527C109.574 371.142 109.849 370.812 110.057 370.539C110.265 370.266 110.416 370.013 110.51 369.781C110.606 369.549 110.655 369.309 110.655 369.059C110.655 368.754 110.583 368.488 110.44 368.262C110.299 368.033 110.105 367.854 109.858 367.727C109.61 367.599 109.332 367.535 109.022 367.535C108.694 367.535 108.406 367.605 108.159 367.746C107.914 367.887 107.724 368.079 107.588 368.324C107.453 368.569 107.385 368.85 107.385 369.168H106.686C106.686 368.725 106.787 368.333 106.991 367.992C107.196 367.648 107.476 367.379 107.83 367.184C108.187 366.988 108.591 366.891 109.041 366.891C109.487 366.891 109.882 366.987 110.229 367.18C110.575 367.37 110.847 367.629 111.045 367.957C111.243 368.285 111.342 368.652 111.342 369.059C111.342 369.353 111.29 369.638 111.186 369.914C111.084 370.19 110.909 370.497 110.659 370.836C110.409 371.174 110.062 371.589 109.619 372.078L107.635 374.293V374.344H111.592V375H106.619ZM117.138 375.109C116.575 375.109 116.095 374.948 115.696 374.625C115.3 374.299 114.996 373.829 114.782 373.215C114.571 372.6 114.466 371.862 114.466 371C114.466 370.141 114.571 369.405 114.782 368.793C114.996 368.178 115.302 367.708 115.7 367.383C116.101 367.055 116.58 366.891 117.138 366.891C117.695 366.891 118.173 367.055 118.571 367.383C118.972 367.708 119.278 368.178 119.489 368.793C119.703 369.405 119.81 370.141 119.81 371C119.81 371.862 119.703 372.6 119.489 373.215C119.278 373.829 118.974 374.299 118.575 374.625C118.179 374.948 117.7 375.109 117.138 375.109ZM117.138 374.453C117.755 374.453 118.237 374.152 118.583 373.551C118.929 372.947 119.103 372.096 119.103 371C119.103 370.271 119.023 369.648 118.864 369.133C118.708 368.615 118.483 368.219 118.188 367.945C117.897 367.672 117.547 367.535 117.138 367.535C116.526 367.535 116.045 367.84 115.696 368.449C115.347 369.056 115.173 369.906 115.173 371C115.173 371.729 115.251 372.352 115.407 372.867C115.566 373.383 115.791 373.776 116.083 374.047C116.377 374.318 116.729 374.453 117.138 374.453ZM122.747 375V369H123.423V369.922H123.485C123.605 369.612 123.804 369.368 124.083 369.191C124.364 369.012 124.701 368.922 125.094 368.922C125.508 368.922 125.848 369.02 126.114 369.215C126.382 369.408 126.583 369.673 126.716 370.012H126.766C126.902 369.678 127.122 369.414 127.426 369.219C127.734 369.021 128.106 368.922 128.544 368.922C129.101 368.922 129.541 369.098 129.864 369.449C130.187 369.798 130.348 370.309 130.348 370.98V375H129.653V370.98C129.653 370.507 129.532 370.151 129.29 369.914C129.048 369.677 128.729 369.559 128.333 369.559C127.874 369.559 127.521 369.699 127.274 369.98C127.027 370.262 126.903 370.618 126.903 371.051V375H126.192V370.918C126.192 370.512 126.079 370.184 125.852 369.934C125.626 369.684 125.307 369.559 124.895 369.559C124.619 369.559 124.37 369.626 124.149 369.762C123.93 369.897 123.757 370.086 123.63 370.328C123.505 370.568 123.442 370.844 123.442 371.156V375H122.747Z" fill="var(--text-color)"/>
<path d="M152.544 367V375H151.813V367.766H151.766L149.891 369.012V368.254L151.782 367H152.544ZM157.016 371.25V375H156.321V367H157.016V369.941H157.078C157.219 369.632 157.437 369.384 157.731 369.199C158.028 369.014 158.403 368.922 158.856 368.922C159.262 368.922 159.619 369.005 159.926 369.172C160.233 369.339 160.473 369.585 160.645 369.91C160.817 370.236 160.903 370.637 160.903 371.113V375H160.203V371.156C160.203 370.661 160.065 370.272 159.789 369.988C159.516 369.702 159.146 369.559 158.68 369.559C158.36 369.559 158.075 369.626 157.825 369.762C157.575 369.897 157.377 370.092 157.231 370.348C157.088 370.6 157.016 370.901 157.016 371.25Z" fill="var(--text-color)"/>
<path d="M188.579 366.891C188.912 366.893 189.235 366.961 189.548 367.094C189.863 367.224 190.146 367.435 190.399 367.727C190.652 368.016 190.852 368.401 191.001 368.883C191.149 369.362 191.223 369.952 191.223 370.652C191.223 371.306 191.166 371.905 191.051 372.449C190.937 372.993 190.765 373.465 190.536 373.863C190.309 374.259 190.023 374.566 189.676 374.785C189.333 375.001 188.93 375.109 188.469 375.109C188.04 375.109 187.658 375.02 187.325 374.84C186.994 374.66 186.726 374.411 186.52 374.094C186.314 373.773 186.187 373.404 186.137 372.984H186.856C186.926 373.411 187.098 373.763 187.372 374.039C187.648 374.315 188.014 374.453 188.469 374.453C189.123 374.453 189.631 374.148 189.993 373.539C190.355 372.93 190.536 372.062 190.536 370.937H190.485C190.36 371.172 190.196 371.376 189.993 371.551C189.792 371.725 189.563 371.862 189.305 371.961C189.048 372.057 188.775 372.105 188.489 372.105C188.044 372.105 187.636 371.993 187.266 371.77C186.896 371.543 186.601 371.234 186.38 370.844C186.158 370.451 186.048 370.003 186.048 369.5C186.048 369.026 186.152 368.591 186.36 368.195C186.571 367.797 186.865 367.479 187.243 367.242C187.623 367.003 188.068 366.885 188.579 366.891ZM188.579 367.547C188.232 367.547 187.921 367.635 187.645 367.812C187.372 367.987 187.154 368.223 186.993 368.52C186.834 368.814 186.755 369.141 186.755 369.5C186.755 369.862 186.834 370.191 186.993 370.488C187.154 370.783 187.372 371.017 187.645 371.191C187.921 371.363 188.232 371.449 188.579 371.449C188.844 371.449 189.092 371.396 189.321 371.289C189.55 371.18 189.748 371.031 189.915 370.844C190.084 370.656 190.212 370.444 190.298 370.207C190.386 369.967 190.421 369.716 190.403 369.453C190.372 369.089 190.274 368.763 190.11 368.477C189.949 368.187 189.735 367.961 189.469 367.797C189.206 367.63 188.909 367.547 188.579 367.547ZM194.918 371.25V375H194.223V367H194.918V369.941H194.981C195.121 369.632 195.339 369.384 195.633 369.199C195.93 369.014 196.305 368.922 196.758 368.922C197.164 368.922 197.521 369.005 197.828 369.172C198.136 369.339 198.375 369.585 198.547 369.91C198.719 370.236 198.805 370.637 198.805 371.113V375H198.106V371.156C198.106 370.661 197.968 370.272 197.692 369.988C197.418 369.702 197.049 369.559 196.582 369.559C196.262 369.559 195.977 369.626 195.727 369.762C195.477 369.897 195.279 370.092 195.133 370.348C194.99 370.6 194.918 370.901 194.918 371.25Z" fill="var(--text-color)"/>
<path d="M227.377 367V375H226.647V367.766H226.6L224.725 369.012V368.254L226.615 367H227.377ZM233.314 375.125C232.822 375.125 232.391 374.995 232.021 374.734C231.652 374.474 231.362 374.111 231.154 373.645C230.948 373.178 230.846 372.635 230.846 372.016C230.846 371.398 230.948 370.858 231.154 370.395C231.362 369.928 231.653 369.566 232.025 369.309C232.398 369.048 232.831 368.918 233.326 368.918C233.691 368.918 233.994 368.983 234.236 369.113C234.478 369.241 234.672 369.4 234.818 369.59C234.964 369.78 235.077 369.965 235.158 370.145H235.221V367H235.92V375H235.24V373.887H235.158C235.077 374.069 234.963 374.257 234.814 374.449C234.666 374.639 234.469 374.799 234.224 374.93C233.982 375.06 233.679 375.125 233.314 375.125ZM233.396 374.488C233.784 374.488 234.115 374.383 234.389 374.172C234.662 373.958 234.87 373.665 235.014 373.293C235.159 372.918 235.232 372.488 235.232 372.004C235.232 371.525 235.161 371.102 235.017 370.734C234.874 370.365 234.666 370.076 234.392 369.867C234.119 369.656 233.787 369.551 233.396 369.551C232.995 369.551 232.657 369.66 232.381 369.879C232.107 370.095 231.899 370.388 231.756 370.758C231.615 371.128 231.545 371.543 231.545 372.004C231.545 372.47 231.616 372.891 231.76 373.266C231.903 373.641 232.111 373.939 232.385 374.16C232.661 374.379 232.998 374.488 233.396 374.488Z" fill="var(--text-color)"/>
<path d="M262.001 375V374.465L264.614 371.527C264.955 371.142 265.23 370.812 265.438 370.539C265.646 370.266 265.798 370.013 265.891 369.781C265.988 369.549 266.036 369.309 266.036 369.059C266.036 368.754 265.964 368.488 265.821 368.262C265.68 368.033 265.486 367.854 265.239 367.727C264.992 367.599 264.713 367.535 264.403 367.535C264.075 367.535 263.787 367.605 263.54 367.746C263.295 367.887 263.105 368.079 262.969 368.324C262.834 368.569 262.766 368.85 262.766 369.168H262.067C262.067 368.725 262.169 368.333 262.372 367.992C262.577 367.648 262.857 367.379 263.212 367.184C263.568 366.988 263.972 366.891 264.423 366.891C264.868 366.891 265.264 366.987 265.61 367.18C265.956 367.37 266.229 367.629 266.426 367.957C266.624 368.285 266.723 368.652 266.723 369.059C266.723 369.353 266.671 369.638 266.567 369.914C266.465 370.19 266.29 370.497 266.04 370.836C265.79 371.174 265.443 371.589 265.001 372.078L263.016 374.293V374.344H266.973V375H262.001ZM272.222 375.125C271.73 375.125 271.299 374.995 270.929 374.734C270.559 374.474 270.27 374.111 270.062 373.645C269.856 373.178 269.753 372.635 269.753 372.016C269.753 371.398 269.856 370.858 270.062 370.395C270.27 369.928 270.561 369.566 270.933 369.309C271.305 369.048 271.739 368.918 272.234 368.918C272.598 368.918 272.902 368.983 273.144 369.113C273.386 369.241 273.58 369.4 273.726 369.59C273.872 369.78 273.985 369.965 274.066 370.145H274.128V367H274.827V375H274.148V373.887H274.066C273.985 374.069 273.87 374.257 273.722 374.449C273.574 374.639 273.377 374.799 273.132 374.93C272.89 375.06 272.587 375.125 272.222 375.125ZM272.304 374.488C272.692 374.488 273.023 374.383 273.296 374.172C273.57 373.958 273.778 373.665 273.921 373.293C274.067 372.918 274.14 372.488 274.14 372.004C274.14 371.525 274.068 371.102 273.925 370.734C273.782 370.365 273.574 370.076 273.3 369.867C273.027 369.656 272.695 369.551 272.304 369.551C271.903 369.551 271.564 369.66 271.288 369.879C271.015 370.095 270.807 370.388 270.663 370.758C270.523 371.128 270.452 371.543 270.452 372.004C270.452 372.47 270.524 372.891 270.667 373.266C270.811 373.641 271.019 373.939 271.292 374.16C271.568 374.379 271.906 374.488 272.304 374.488Z" fill="var(--text-color)"/>
<path d="M301.526 375.109C301.195 375.107 300.872 375.04 300.557 374.91C300.242 374.777 299.958 374.565 299.705 374.273C299.453 373.979 299.252 373.591 299.104 373.109C298.955 372.628 298.881 372.035 298.881 371.332C298.881 370.681 298.938 370.085 299.053 369.543C299.167 369.001 299.339 368.533 299.569 368.137C299.798 367.741 300.084 367.435 300.428 367.219C300.772 367 301.174 366.891 301.635 366.891C302.067 366.891 302.449 366.98 302.779 367.16C303.11 367.337 303.378 367.585 303.584 367.902C303.79 368.22 303.919 368.586 303.971 369H303.252C303.179 368.578 303.006 368.23 302.733 367.957C302.459 367.684 302.093 367.547 301.635 367.547C300.979 367.547 300.471 367.852 300.111 368.461C299.752 369.068 299.571 369.93 299.569 371.047H299.619C299.747 370.81 299.911 370.605 300.111 370.434C300.315 370.259 300.545 370.124 300.803 370.027C301.061 369.928 301.332 369.879 301.615 369.879C302.061 369.879 302.468 369.992 302.838 370.219C303.208 370.443 303.503 370.751 303.725 371.145C303.946 371.535 304.057 371.982 304.057 372.484C304.057 372.961 303.951 373.4 303.74 373.801C303.532 374.202 303.238 374.521 302.858 374.758C302.48 374.995 302.036 375.112 301.526 375.109ZM301.526 374.453C301.875 374.453 302.186 374.365 302.459 374.187C302.735 374.01 302.953 373.773 303.111 373.477C303.27 373.177 303.35 372.846 303.35 372.484C303.35 372.122 303.27 371.794 303.111 371.5C302.953 371.206 302.735 370.971 302.459 370.797C302.186 370.622 301.875 370.535 301.526 370.535C301.26 370.535 301.013 370.59 300.783 370.699C300.554 370.806 300.355 370.953 300.186 371.141C300.019 371.326 299.891 371.538 299.803 371.777C299.717 372.017 299.684 372.268 299.705 372.531C299.734 372.898 299.829 373.228 299.99 373.52C300.154 373.809 300.368 374.036 300.631 374.203C300.897 374.37 301.195 374.453 301.526 374.453ZM309.217 375.125C308.724 375.125 308.293 374.995 307.924 374.734C307.554 374.474 307.265 374.111 307.056 373.645C306.851 373.178 306.748 372.635 306.748 372.016C306.748 371.398 306.851 370.858 307.056 370.395C307.265 369.928 307.555 369.566 307.928 369.309C308.3 369.048 308.734 368.918 309.228 368.918C309.593 368.918 309.896 368.983 310.139 369.113C310.381 369.241 310.575 369.4 310.721 369.59C310.866 369.78 310.98 369.965 311.06 370.145H311.123V367H311.822V375H311.142V373.887H311.06C310.98 374.069 310.865 374.257 310.717 374.449C310.568 374.639 310.372 374.799 310.127 374.93C309.885 375.06 309.581 375.125 309.217 375.125ZM309.299 374.488C309.687 374.488 310.017 374.383 310.291 374.172C310.564 373.958 310.773 373.665 310.916 373.293C311.062 372.918 311.135 372.488 311.135 372.004C311.135 371.525 311.063 371.102 310.92 370.734C310.777 370.365 310.568 370.076 310.295 369.867C310.021 369.656 309.689 369.551 309.299 369.551C308.898 369.551 308.559 369.66 308.283 369.879C308.01 370.095 307.801 370.388 307.658 370.758C307.517 371.128 307.447 371.543 307.447 372.004C307.447 372.47 307.519 372.891 307.662 373.266C307.805 373.641 308.014 373.939 308.287 374.16C308.563 374.379 308.9 374.488 309.299 374.488Z" fill="var(--text-color)"/>
<path d="M336.387 375.109C335.895 375.109 335.455 375.021 335.067 374.844C334.679 374.664 334.371 374.415 334.145 374.098C333.918 373.78 333.798 373.414 333.785 373H334.524C334.537 373.292 334.627 373.547 334.793 373.766C334.96 373.982 335.181 374.151 335.457 374.273C335.733 374.393 336.041 374.453 336.379 374.453C336.749 374.453 337.075 374.384 337.356 374.246C337.64 374.108 337.861 373.919 338.02 373.68C338.181 373.437 338.262 373.164 338.262 372.859C338.262 372.536 338.18 372.251 338.016 372.004C337.852 371.757 337.616 371.564 337.309 371.426C337.004 371.288 336.64 371.219 336.215 371.219H335.746V370.562H336.215C336.562 370.562 336.868 370.5 337.133 370.375C337.401 370.247 337.612 370.069 337.766 369.84C337.92 369.611 337.996 369.341 337.996 369.031C337.996 368.737 337.93 368.478 337.797 368.254C337.664 368.03 337.477 367.854 337.235 367.727C336.995 367.599 336.715 367.535 336.395 367.535C336.085 367.535 335.801 367.595 335.543 367.715C335.285 367.835 335.077 368.004 334.918 368.223C334.762 368.441 334.679 368.701 334.668 369H333.961C333.972 368.583 334.086 368.217 334.305 367.902C334.526 367.585 334.819 367.337 335.184 367.16C335.551 366.98 335.957 366.891 336.403 366.891C336.874 366.891 337.282 366.987 337.625 367.18C337.969 367.372 338.235 367.629 338.422 367.949C338.612 368.267 338.707 368.617 338.707 369C338.707 369.456 338.584 369.846 338.336 370.172C338.089 370.495 337.756 370.719 337.336 370.844V370.895C337.847 370.996 338.248 371.223 338.539 371.574C338.834 371.923 338.981 372.352 338.981 372.859C338.981 373.286 338.869 373.671 338.645 374.012C338.421 374.35 338.114 374.618 337.723 374.816C337.335 375.012 336.89 375.109 336.387 375.109ZM344.496 367V375H343.766V367.766H343.719L341.844 369.012V368.254L343.734 367H344.496ZM350.433 375.125C349.941 375.125 349.51 374.995 349.14 374.734C348.771 374.474 348.481 374.111 348.273 373.645C348.067 373.178 347.965 372.635 347.965 372.016C347.965 371.398 348.067 370.858 348.273 370.395C348.481 369.928 348.772 369.566 349.144 369.309C349.517 369.048 349.95 368.918 350.445 368.918C350.81 368.918 351.113 368.983 351.355 369.113C351.597 369.241 351.791 369.4 351.937 369.59C352.083 369.78 352.196 369.965 352.277 370.145H352.34V367H353.039V375H352.359V373.887H352.277C352.196 374.069 352.082 374.257 351.933 374.449C351.785 374.639 351.588 374.799 351.343 374.93C351.101 375.06 350.798 375.125 350.433 375.125ZM350.515 374.488C350.903 374.488 351.234 374.383 351.507 374.172C351.781 373.958 351.989 373.665 352.132 373.293C352.278 372.918 352.351 372.488 352.351 372.004C352.351 371.525 352.28 371.102 352.136 370.734C351.993 370.365 351.785 370.076 351.511 369.867C351.238 369.656 350.906 369.551 350.515 369.551C350.114 369.551 349.776 369.66 349.5 369.879C349.226 370.095 349.018 370.388 348.875 370.758C348.734 371.128 348.664 371.543 348.664 372.004C348.664 372.47 348.735 372.891 348.879 373.266C349.022 373.641 349.23 373.939 349.504 374.16C349.78 374.379 350.117 374.488 350.515 374.488Z" fill="var(--text-color)"/>
<path d="M56.5111 364.109C55.9486 364.109 55.4681 363.948 55.0696 363.625C54.6738 363.299 54.3691 362.829 54.1556 362.215C53.9446 361.6 53.8392 360.862 53.8392 360C53.8392 359.141 53.9446 358.405 54.1556 357.793C54.3691 357.178 54.6751 356.708 55.0736 356.383C55.4746 356.055 55.9538 355.891 56.5111 355.891C57.0683 355.891 57.5462 356.055 57.9446 356.383C58.3457 356.708 58.6517 357.178 58.8626 357.793C59.0762 358.405 59.1829 359.141 59.1829 360C59.1829 360.862 59.0762 361.6 58.8626 362.215C58.6517 362.829 58.347 363.299 57.9486 363.625C57.5527 363.948 57.0736 364.109 56.5111 364.109ZM56.5111 363.453C57.1282 363.453 57.61 363.152 57.9564 362.551C58.3027 361.947 58.4759 361.096 58.4759 360C58.4759 359.271 58.3965 358.648 58.2376 358.133C58.0814 357.615 57.8561 357.219 57.5618 356.945C57.2702 356.672 56.9199 356.535 56.5111 356.535C55.8991 356.535 55.4186 356.84 55.0696 357.449C54.7207 358.056 54.5462 358.906 54.5462 360C54.5462 360.729 54.6243 361.352 54.7806 361.867C54.9394 362.383 55.1647 362.776 55.4564 363.047C55.7506 363.318 56.1022 363.453 56.5111 363.453ZM66.1396 362.516V362.152C66.1396 361.853 66.1995 361.583 66.3193 361.344C66.4391 361.102 66.6097 360.91 66.8311 360.77C67.0524 360.629 67.3154 360.559 67.6201 360.559C67.9274 360.559 68.1904 360.629 68.4092 360.77C68.6279 360.91 68.7959 361.102 68.9131 361.344C69.0303 361.583 69.0889 361.853 69.0889 362.152V362.516C69.0889 362.815 69.029 363.085 68.9092 363.324C68.792 363.564 68.624 363.755 68.4053 363.898C68.1865 364.039 67.9248 364.109 67.6201 364.109C67.3102 364.109 67.0446 364.039 66.8232 363.898C66.6045 363.755 66.4352 363.564 66.3154 363.324C66.1982 363.085 66.1396 362.815 66.1396 362.516ZM66.7529 362.152V362.516C66.7529 362.81 66.8245 363.061 66.9678 363.27C67.1136 363.475 67.3311 363.578 67.6201 363.578C67.9014 363.578 68.1136 363.475 68.2568 363.27C68.4001 363.061 68.4717 362.81 68.4717 362.516V362.152C68.4717 361.858 68.4014 361.608 68.2607 361.402C68.1201 361.194 67.9066 361.09 67.6201 361.09C67.3363 361.09 67.1201 361.194 66.9717 361.402C66.8258 361.608 66.7529 361.858 66.7529 362.152ZM62.1084 357.848V357.484C62.1084 357.185 62.1683 356.915 62.2881 356.676C62.4079 356.436 62.5785 356.246 62.7998 356.105C63.0212 355.962 63.2842 355.891 63.5889 355.891C63.8962 355.891 64.1592 355.962 64.3779 356.105C64.5967 356.246 64.7646 356.436 64.8818 356.676C64.999 356.915 65.0576 357.185 65.0576 357.484V357.848C65.0576 358.147 64.9977 358.418 64.8779 358.66C64.7607 358.9 64.5928 359.09 64.374 359.23C64.1553 359.371 63.8936 359.441 63.5889 359.441C63.279 359.441 63.0133 359.371 62.792 359.23C62.5732 359.09 62.404 358.9 62.2842 358.66C62.167 358.418 62.1084 358.147 62.1084 357.848ZM62.7217 357.484V357.848C62.7217 358.142 62.7933 358.393 62.9365 358.602C63.0824 358.807 63.2998 358.91 63.5889 358.91C63.8701 358.91 64.0824 358.807 64.2256 358.602C64.3688 358.393 64.4404 358.142 64.4404 357.848V357.484C64.4404 357.19 64.3701 356.94 64.2295 356.734C64.0889 356.526 63.8753 356.422 63.5889 356.422C63.305 356.422 63.0889 356.526 62.9404 356.734C62.7946 356.94 62.7217 357.19 62.7217 357.484ZM62.4678 364L67.9639 356H68.6553L63.1592 364H62.4678Z" fill="var(--text-color)"/>
<path d="M45.9928 296V295.465L48.6061 292.527C48.9472 292.142 49.222 291.812 49.4303 291.539C49.6386 291.266 49.7897 291.013 49.8834 290.781C49.9798 290.549 50.028 290.309 50.028 290.059C50.028 289.754 49.9564 289.488 49.8131 289.262C49.6725 289.033 49.4785 288.854 49.2311 288.727C48.9837 288.599 48.7051 288.535 48.3952 288.535C48.067 288.535 47.7793 288.605 47.5319 288.746C47.2871 288.887 47.097 289.079 46.9616 289.324C46.8261 289.569 46.7584 289.85 46.7584 290.168H46.0592C46.0592 289.725 46.1608 289.333 46.3639 288.992C46.5696 288.648 46.8496 288.379 47.2038 288.184C47.5605 287.988 47.9642 287.891 48.4147 287.891C48.86 287.891 49.2558 287.987 49.6022 288.18C49.9485 288.37 50.2207 288.629 50.4186 288.957C50.6165 289.285 50.7155 289.652 50.7155 290.059C50.7155 290.353 50.6634 290.638 50.5592 290.914C50.4577 291.19 50.2819 291.497 50.0319 291.836C49.7819 292.174 49.4355 292.589 48.9928 293.078L47.0084 295.293V295.344H50.9655V296H45.9928ZM56.5111 296.109C55.9486 296.109 55.4681 295.948 55.0696 295.625C54.6738 295.299 54.3691 294.829 54.1556 294.215C53.9446 293.6 53.8392 292.862 53.8392 292C53.8392 291.141 53.9446 290.405 54.1556 289.793C54.3691 289.178 54.6751 288.708 55.0736 288.383C55.4746 288.055 55.9538 287.891 56.5111 287.891C57.0683 287.891 57.5462 288.055 57.9446 288.383C58.3457 288.708 58.6517 289.178 58.8626 289.793C59.0762 290.405 59.1829 291.141 59.1829 292C59.1829 292.862 59.0762 293.6 58.8626 294.215C58.6517 294.829 58.347 295.299 57.9486 295.625C57.5527 295.948 57.0736 296.109 56.5111 296.109ZM56.5111 295.453C57.1282 295.453 57.61 295.152 57.9564 294.551C58.3027 293.947 58.4759 293.096 58.4759 292C58.4759 291.271 58.3965 290.648 58.2376 290.133C58.0814 289.615 57.8561 289.219 57.5618 288.945C57.2702 288.672 56.9199 288.535 56.5111 288.535C55.8991 288.535 55.4186 288.84 55.0696 289.449C54.7207 290.056 54.5462 290.906 54.5462 292C54.5462 292.729 54.6243 293.352 54.7806 293.867C54.9394 294.383 55.1647 294.776 55.4564 295.047C55.7506 295.318 56.1022 295.453 56.5111 295.453ZM66.1396 294.516V294.152C66.1396 293.853 66.1995 293.583 66.3193 293.344C66.4391 293.102 66.6097 292.91 66.8311 292.77C67.0524 292.629 67.3154 292.559 67.6201 292.559C67.9274 292.559 68.1904 292.629 68.4092 292.77C68.6279 292.91 68.7959 293.102 68.9131 293.344C69.0303 293.583 69.0889 293.853 69.0889 294.152V294.516C69.0889 294.815 69.029 295.085 68.9092 295.324C68.792 295.564 68.624 295.755 68.4053 295.898C68.1865 296.039 67.9248 296.109 67.6201 296.109C67.3102 296.109 67.0446 296.039 66.8232 295.898C66.6045 295.755 66.4352 295.564 66.3154 295.324C66.1982 295.085 66.1396 294.815 66.1396 294.516ZM66.7529 294.152V294.516C66.7529 294.81 66.8245 295.061 66.9678 295.27C67.1136 295.475 67.3311 295.578 67.6201 295.578C67.9014 295.578 68.1136 295.475 68.2568 295.27C68.4001 295.061 68.4717 294.81 68.4717 294.516V294.152C68.4717 293.858 68.4014 293.608 68.2607 293.402C68.1201 293.194 67.9066 293.09 67.6201 293.09C67.3363 293.09 67.1201 293.194 66.9717 293.402C66.8258 293.608 66.7529 293.858 66.7529 294.152ZM62.1084 289.848V289.484C62.1084 289.185 62.1683 288.915 62.2881 288.676C62.4079 288.436 62.5785 288.246 62.7998 288.105C63.0212 287.962 63.2842 287.891 63.5889 287.891C63.8962 287.891 64.1592 287.962 64.3779 288.105C64.5967 288.246 64.7646 288.436 64.8818 288.676C64.999 288.915 65.0576 289.185 65.0576 289.484V289.848C65.0576 290.147 64.9977 290.418 64.8779 290.66C64.7607 290.9 64.5928 291.09 64.374 291.23C64.1553 291.371 63.8936 291.441 63.5889 291.441C63.279 291.441 63.0133 291.371 62.792 291.23C62.5732 291.09 62.404 290.9 62.2842 290.66C62.167 290.418 62.1084 290.147 62.1084 289.848ZM62.7217 289.484V289.848C62.7217 290.142 62.7933 290.393 62.9365 290.602C63.0824 290.807 63.2998 290.91 63.5889 290.91C63.8701 290.91 64.0824 290.807 64.2256 290.602C64.3688 290.393 64.4404 290.142 64.4404 289.848V289.484C64.4404 289.19 64.3701 288.94 64.2295 288.734C64.0889 288.526 63.8753 288.422 63.5889 288.422C63.305 288.422 63.0889 288.526 62.9404 288.734C62.7946 288.94 62.7217 289.19 62.7217 289.484ZM62.4678 296L67.9639 288H68.6553L63.1592 296H62.4678Z" fill="var(--text-color)"/>
<path d="M45.6295 226.281V225.687L49.1959 220H49.6334V220.996H49.3092L46.4459 225.574V225.625H51.1217V226.281H45.6295ZM49.3639 228V226.094V225.82V220H50.0592V228H49.3639ZM56.5111 228.109C55.9486 228.109 55.4681 227.948 55.0696 227.625C54.6738 227.299 54.3691 226.829 54.1556 226.215C53.9446 225.6 53.8392 224.862 53.8392 224C53.8392 223.141 53.9446 222.405 54.1556 221.793C54.3691 221.178 54.6751 220.708 55.0736 220.383C55.4746 220.055 55.9538 219.891 56.5111 219.891C57.0683 219.891 57.5462 220.055 57.9446 220.383C58.3457 220.708 58.6517 221.178 58.8626 221.793C59.0762 222.405 59.1829 223.141 59.1829 224C59.1829 224.862 59.0762 225.6 58.8626 226.215C58.6517 226.829 58.347 227.299 57.9486 227.625C57.5527 227.948 57.0736 228.109 56.5111 228.109ZM56.5111 227.453C57.1282 227.453 57.61 227.152 57.9564 226.551C58.3027 225.947 58.4759 225.096 58.4759 224C58.4759 223.271 58.3965 222.648 58.2376 222.133C58.0814 221.615 57.8561 221.219 57.5618 220.945C57.2702 220.672 56.9199 220.535 56.5111 220.535C55.8991 220.535 55.4186 220.84 55.0696 221.449C54.7207 222.056 54.5462 222.906 54.5462 224C54.5462 224.729 54.6243 225.352 54.7806 225.867C54.9394 226.383 55.1647 226.776 55.4564 227.047C55.7506 227.318 56.1022 227.453 56.5111 227.453ZM66.1396 226.516V226.152C66.1396 225.853 66.1995 225.583 66.3193 225.344C66.4391 225.102 66.6097 224.91 66.8311 224.77C67.0524 224.629 67.3154 224.559 67.6201 224.559C67.9274 224.559 68.1904 224.629 68.4092 224.77C68.6279 224.91 68.7959 225.102 68.9131 225.344C69.0303 225.583 69.0889 225.853 69.0889 226.152V226.516C69.0889 226.815 69.029 227.085 68.9092 227.324C68.792 227.564 68.624 227.755 68.4053 227.898C68.1865 228.039 67.9248 228.109 67.6201 228.109C67.3102 228.109 67.0446 228.039 66.8232 227.898C66.6045 227.755 66.4352 227.564 66.3154 227.324C66.1982 227.085 66.1396 226.815 66.1396 226.516ZM66.7529 226.152V226.516C66.7529 226.81 66.8245 227.061 66.9678 227.27C67.1136 227.475 67.3311 227.578 67.6201 227.578C67.9014 227.578 68.1136 227.475 68.2568 227.27C68.4001 227.061 68.4717 226.81 68.4717 226.516V226.152C68.4717 225.858 68.4014 225.608 68.2607 225.402C68.1201 225.194 67.9066 225.09 67.6201 225.09C67.3363 225.09 67.1201 225.194 66.9717 225.402C66.8258 225.608 66.7529 225.858 66.7529 226.152ZM62.1084 221.848V221.484C62.1084 221.185 62.1683 220.915 62.2881 220.676C62.4079 220.436 62.5785 220.246 62.7998 220.105C63.0212 219.962 63.2842 219.891 63.5889 219.891C63.8962 219.891 64.1592 219.962 64.3779 220.105C64.5967 220.246 64.7646 220.436 64.8818 220.676C64.999 220.915 65.0576 221.185 65.0576 221.484V221.848C65.0576 222.147 64.9977 222.418 64.8779 222.66C64.7607 222.9 64.5928 223.09 64.374 223.23C64.1553 223.371 63.8936 223.441 63.5889 223.441C63.279 223.441 63.0133 223.371 62.792 223.23C62.5732 223.09 62.404 222.9 62.2842 222.66C62.167 222.418 62.1084 222.147 62.1084 221.848ZM62.7217 221.484V221.848C62.7217 222.142 62.7933 222.393 62.9365 222.602C63.0824 222.807 63.2998 222.91 63.5889 222.91C63.8701 222.91 64.0824 222.807 64.2256 222.602C64.3688 222.393 64.4404 222.142 64.4404 221.848V221.484C64.4404 221.19 64.3701 220.94 64.2295 220.734C64.0889 220.526 63.8753 220.422 63.5889 220.422C63.305 220.422 63.0889 220.526 62.9404 220.734C62.7946 220.94 62.7217 221.19 62.7217 221.484ZM62.4678 228L67.9639 220H68.6553L63.1592 228H62.4678Z" fill="var(--text-color)"/>
<path d="M48.5231 160.109C48.1924 160.107 47.8694 160.04 47.5543 159.91C47.2392 159.777 46.9554 159.565 46.7028 159.273C46.4502 158.979 46.2496 158.591 46.1012 158.109C45.9528 157.628 45.8786 157.035 45.8786 156.332C45.8786 155.681 45.9358 155.085 46.0504 154.543C46.165 154.001 46.3369 153.533 46.5661 153.137C46.7952 152.741 47.0817 152.435 47.4254 152.219C47.7692 152 48.1715 151.891 48.6325 151.891C49.0648 151.891 49.4463 151.98 49.777 152.16C50.1077 152.337 50.376 152.585 50.5817 152.902C50.7874 153.22 50.9163 153.586 50.9684 154H50.2496C50.1767 153.578 50.0036 153.23 49.7301 152.957C49.4567 152.684 49.0908 152.547 48.6325 152.547C47.9762 152.547 47.4684 152.852 47.109 153.461C46.7496 154.068 46.5687 154.93 46.5661 156.047H46.6168C46.7444 155.81 46.9085 155.605 47.109 155.434C47.3121 155.259 47.5426 155.124 47.8004 155.027C48.0582 154.928 48.3291 154.879 48.6129 154.879C49.0582 154.879 49.4658 154.992 49.8356 155.219C50.2054 155.443 50.501 155.751 50.7223 156.145C50.9437 156.535 51.0543 156.982 51.0543 157.484C51.0543 157.961 50.9489 158.4 50.7379 158.801C50.5296 159.202 50.2353 159.521 49.8551 159.758C49.4775 159.995 49.0335 160.112 48.5231 160.109ZM48.5231 159.453C48.872 159.453 49.1832 159.365 49.4567 159.187C49.7327 159.01 49.9502 158.773 50.109 158.477C50.2679 158.177 50.3473 157.846 50.3473 157.484C50.3473 157.122 50.2679 156.794 50.109 156.5C49.9502 156.206 49.7327 155.971 49.4567 155.797C49.1832 155.622 48.872 155.535 48.5231 155.535C48.2575 155.535 48.0101 155.59 47.7809 155.699C47.5517 155.806 47.3525 155.953 47.1832 156.141C47.0166 156.326 46.889 156.538 46.8004 156.777C46.7145 157.017 46.6819 157.268 46.7028 157.531C46.7314 157.898 46.8265 158.228 46.9879 158.52C47.152 158.809 47.3655 159.036 47.6286 159.203C47.8942 159.37 48.1924 159.453 48.5231 159.453ZM56.5111 160.109C55.9486 160.109 55.4681 159.948 55.0696 159.625C54.6738 159.299 54.3691 158.829 54.1556 158.215C53.9446 157.6 53.8392 156.862 53.8392 156C53.8392 155.141 53.9446 154.405 54.1556 153.793C54.3691 153.178 54.6751 152.708 55.0736 152.383C55.4746 152.055 55.9538 151.891 56.5111 151.891C57.0683 151.891 57.5462 152.055 57.9446 152.383C58.3457 152.708 58.6517 153.178 58.8626 153.793C59.0762 154.405 59.1829 155.141 59.1829 156C59.1829 156.862 59.0762 157.6 58.8626 158.215C58.6517 158.829 58.347 159.299 57.9486 159.625C57.5527 159.948 57.0736 160.109 56.5111 160.109ZM56.5111 159.453C57.1282 159.453 57.61 159.152 57.9564 158.551C58.3027 157.947 58.4759 157.096 58.4759 156C58.4759 155.271 58.3965 154.648 58.2376 154.133C58.0814 153.615 57.8561 153.219 57.5618 152.945C57.2702 152.672 56.9199 152.535 56.5111 152.535C55.8991 152.535 55.4186 152.84 55.0696 153.449C54.7207 154.056 54.5462 154.906 54.5462 156C54.5462 156.729 54.6243 157.352 54.7806 157.867C54.9394 158.383 55.1647 158.776 55.4564 159.047C55.7506 159.318 56.1022 159.453 56.5111 159.453ZM66.1396 158.516V158.152C66.1396 157.853 66.1995 157.583 66.3193 157.344C66.4391 157.102 66.6097 156.91 66.8311 156.77C67.0524 156.629 67.3154 156.559 67.6201 156.559C67.9274 156.559 68.1904 156.629 68.4092 156.77C68.6279 156.91 68.7959 157.102 68.9131 157.344C69.0303 157.583 69.0889 157.853 69.0889 158.152V158.516C69.0889 158.815 69.029 159.085 68.9092 159.324C68.792 159.564 68.624 159.755 68.4053 159.898C68.1865 160.039 67.9248 160.109 67.6201 160.109C67.3102 160.109 67.0446 160.039 66.8232 159.898C66.6045 159.755 66.4352 159.564 66.3154 159.324C66.1982 159.085 66.1396 158.815 66.1396 158.516ZM66.7529 158.152V158.516C66.7529 158.81 66.8245 159.061 66.9678 159.27C67.1136 159.475 67.3311 159.578 67.6201 159.578C67.9014 159.578 68.1136 159.475 68.2568 159.27C68.4001 159.061 68.4717 158.81 68.4717 158.516V158.152C68.4717 157.858 68.4014 157.608 68.2607 157.402C68.1201 157.194 67.9066 157.09 67.6201 157.09C67.3363 157.09 67.1201 157.194 66.9717 157.402C66.8258 157.608 66.7529 157.858 66.7529 158.152ZM62.1084 153.848V153.484C62.1084 153.185 62.1683 152.915 62.2881 152.676C62.4079 152.436 62.5785 152.246 62.7998 152.105C63.0212 151.962 63.2842 151.891 63.5889 151.891C63.8962 151.891 64.1592 151.962 64.3779 152.105C64.5967 152.246 64.7646 152.436 64.8818 152.676C64.999 152.915 65.0576 153.185 65.0576 153.484V153.848C65.0576 154.147 64.9977 154.418 64.8779 154.66C64.7607 154.9 64.5928 155.09 64.374 155.23C64.1553 155.371 63.8936 155.441 63.5889 155.441C63.279 155.441 63.0133 155.371 62.792 155.23C62.5732 155.09 62.404 154.9 62.2842 154.66C62.167 154.418 62.1084 154.147 62.1084 153.848ZM62.7217 153.484V153.848C62.7217 154.142 62.7933 154.393 62.9365 154.602C63.0824 154.807 63.2998 154.91 63.5889 154.91C63.8701 154.91 64.0824 154.807 64.2256 154.602C64.3688 154.393 64.4404 154.142 64.4404 153.848V153.484C64.4404 153.19 64.3701 152.94 64.2295 152.734C64.0889 152.526 63.8753 152.422 63.5889 152.422C63.305 152.422 63.0889 152.526 62.9404 152.734C62.7946 152.94 62.7217 153.19 62.7217 153.484ZM62.4678 160L67.9639 152H68.6553L63.1592 160H62.4678Z" fill="var(--text-color)"/>
<path d="M48.444 92.1094C47.9336 92.1094 47.4791 92.013 47.0807 91.8203C46.6823 91.6276 46.3698 91.3646 46.1432 91.0312C45.9166 90.6953 45.8034 90.3164 45.8034 89.8945C45.8034 89.5638 45.8724 89.2552 46.0104 88.9687C46.1484 88.6797 46.3385 88.4375 46.5807 88.2422C46.8229 88.0443 47.095 87.9154 47.3971 87.8555V87.8125C47.0039 87.6979 46.6875 87.4727 46.4479 87.1367C46.2083 86.7982 46.0898 86.4141 46.0924 85.9844C46.0898 85.5859 46.1914 85.2292 46.3971 84.9141C46.6028 84.599 46.8828 84.3503 47.237 84.168C47.5937 83.9831 47.9961 83.8906 48.444 83.8906C48.8893 83.8906 49.289 83.9831 49.6432 84.168C49.9974 84.3503 50.2773 84.599 50.483 84.9141C50.6914 85.2292 50.7968 85.5859 50.7995 85.9844C50.7968 86.4115 50.6758 86.7956 50.4362 87.1367C50.1966 87.4753 49.8815 87.7005 49.4909 87.8125V87.8555C49.7929 87.9128 50.0638 88.0404 50.3034 88.2383C50.5429 88.4362 50.733 88.6797 50.8737 88.9687C51.0143 89.2552 51.0846 89.5638 51.0846 89.8945C51.0846 90.3164 50.97 90.6953 50.7409 91.0312C50.5143 91.3646 50.2018 91.6276 49.8034 91.8203C49.4075 92.013 48.9544 92.1094 48.444 92.1094ZM48.444 91.4531C48.8242 91.4531 49.1575 91.3854 49.444 91.25C49.733 91.112 49.9583 90.9232 50.1198 90.6836C50.2838 90.444 50.3659 90.1693 50.3659 89.8594C50.3659 89.5391 50.2812 89.2539 50.112 89.0039C49.9427 88.7513 49.7135 88.5521 49.4245 88.4062C49.1354 88.2578 48.8086 88.1836 48.444 88.1836C48.0794 88.1836 47.7513 88.2578 47.4596 88.4062C47.1705 88.5521 46.9414 88.7513 46.7721 89.0039C46.6054 89.2539 46.5221 89.5391 46.5221 89.8594C46.5221 90.1693 46.6015 90.444 46.7604 90.6836C46.9218 90.9232 47.1471 91.112 47.4362 91.25C47.7278 91.3854 48.0638 91.4531 48.444 91.4531ZM48.444 87.5586C48.7565 87.5586 49.0364 87.4922 49.2838 87.3594C49.5312 87.2266 49.7265 87.0456 49.8698 86.8164C50.0156 86.5846 50.0898 86.3216 50.0924 86.0273C50.0898 85.7357 50.0169 85.4779 49.8737 85.2539C49.7304 85.0273 49.5351 84.8516 49.2877 84.7266C49.0429 84.599 48.7617 84.5352 48.444 84.5352C48.1263 84.5352 47.8424 84.599 47.5924 84.7266C47.345 84.8516 47.1497 85.0273 47.0065 85.2539C46.8659 85.4779 46.7968 85.7357 46.7995 86.0273C46.7968 86.3216 46.8672 86.5846 47.0104 86.8164C47.1562 87.0456 47.3528 87.2266 47.6002 87.3594C47.8502 87.4922 48.1315 87.5586 48.444 87.5586ZM56.5111 92.1094C55.9486 92.1094 55.4681 91.9479 55.0696 91.625C54.6738 91.2995 54.3691 90.8294 54.1556 90.2148C53.9446 89.6003 53.8392 88.862 53.8392 88C53.8392 87.1406 53.9446 86.4049 54.1556 85.793C54.3691 85.1784 54.6751 84.7083 55.0736 84.3828C55.4746 84.0547 55.9538 83.8906 56.5111 83.8906C57.0683 83.8906 57.5462 84.0547 57.9446 84.3828C58.3457 84.7083 58.6517 85.1784 58.8626 85.793C59.0762 86.4049 59.1829 87.1406 59.1829 88C59.1829 88.862 59.0762 89.6003 58.8626 90.2148C58.6517 90.8294 58.347 91.2995 57.9486 91.625C57.5527 91.9479 57.0736 92.1094 56.5111 92.1094ZM56.5111 91.4531C57.1282 91.4531 57.61 91.1523 57.9564 90.5508C58.3027 89.9466 58.4759 89.0964 58.4759 88C58.4759 87.2708 58.3965 86.6484 58.2376 86.1328C58.0814 85.6146 57.8561 85.2187 57.5618 84.9453C57.2702 84.6719 56.9199 84.5352 56.5111 84.5352C55.8991 84.5352 55.4186 84.8398 55.0696 85.4492C54.7207 86.056 54.5462 86.9062 54.5462 88C54.5462 88.7292 54.6243 89.3516 54.7806 89.8672C54.9394 90.3828 55.1647 90.776 55.4564 91.0469C55.7506 91.3177 56.1022 91.4531 56.5111 91.4531ZM66.1396 90.5156V90.1523C66.1396 89.8529 66.1995 89.5833 66.3193 89.3437C66.4391 89.1016 66.6097 88.9102 66.8311 88.7695C67.0524 88.6289 67.3154 88.5586 67.6201 88.5586C67.9274 88.5586 68.1904 88.6289 68.4092 88.7695C68.6279 88.9102 68.7959 89.1016 68.9131 89.3437C69.0303 89.5833 69.0889 89.8529 69.0889 90.1523V90.5156C69.0889 90.8151 69.029 91.0846 68.9092 91.3242C68.792 91.5638 68.624 91.7552 68.4053 91.8984C68.1865 92.0391 67.9248 92.1094 67.6201 92.1094C67.3102 92.1094 67.0446 92.0391 66.8232 91.8984C66.6045 91.7552 66.4352 91.5638 66.3154 91.3242C66.1982 91.0846 66.1396 90.8151 66.1396 90.5156ZM66.7529 90.1523V90.5156C66.7529 90.8099 66.8245 91.0612 66.9678 91.2695C67.1136 91.4753 67.3311 91.5781 67.6201 91.5781C67.9014 91.5781 68.1136 91.4753 68.2568 91.2695C68.4001 91.0612 68.4717 90.8099 68.4717 90.5156V90.1523C68.4717 89.8581 68.4014 89.6081 68.2607 89.4023C68.1201 89.194 67.9066 89.0898 67.6201 89.0898C67.3363 89.0898 67.1201 89.194 66.9717 89.4023C66.8258 89.6081 66.7529 89.8581 66.7529 90.1523ZM62.1084 85.8477V85.4844C62.1084 85.1849 62.1683 84.9154 62.2881 84.6758C62.4079 84.4362 62.5785 84.2461 62.7998 84.1055C63.0212 83.9622 63.2842 83.8906 63.5889 83.8906C63.8962 83.8906 64.1592 83.9622 64.3779 84.1055C64.5967 84.2461 64.7646 84.4362 64.8818 84.6758C64.999 84.9154 65.0576 85.1849 65.0576 85.4844V85.8477C65.0576 86.1471 64.9977 86.418 64.8779 86.6602C64.7607 86.8997 64.5928 87.0898 64.374 87.2305C64.1553 87.3711 63.8936 87.4414 63.5889 87.4414C63.279 87.4414 63.0133 87.3711 62.792 87.2305C62.5732 87.0898 62.404 86.8997 62.2842 86.6602C62.167 86.418 62.1084 86.1471 62.1084 85.8477ZM62.7217 85.4844V85.8477C62.7217 86.1419 62.7933 86.3932 62.9365 86.6016C63.0824 86.8073 63.2998 86.9102 63.5889 86.9102C63.8701 86.9102 64.0824 86.8073 64.2256 86.6016C64.3688 86.3932 64.4404 86.1419 64.4404 85.8477V85.4844C64.4404 85.1901 64.3701 84.9401 64.2295 84.7344C64.0889 84.526 63.8753 84.4219 63.5889 84.4219C63.305 84.4219 63.0889 84.526 62.9404 84.7344C62.7946 84.9401 62.7217 85.1901 62.7217 85.4844ZM62.4678 92L67.9639 84H68.6553L63.1592 92H62.4678Z" fill="var(--text-color)"/>
<path d="M42.2109 16V24H41.4804V16.7656H41.4336L39.5586 18.0117V17.2539L41.4492 16H42.2109ZM48.445 24.1094C47.8825 24.1094 47.402 23.9479 47.0036 23.625C46.6077 23.2995 46.303 22.8294 46.0895 22.2148C45.8786 21.6003 45.7731 20.862 45.7731 20C45.7731 19.1406 45.8786 18.4049 46.0895 17.793C46.303 17.1784 46.609 16.7083 47.0075 16.3828C47.4085 16.0547 47.8877 15.8906 48.445 15.8906C49.0023 15.8906 49.4801 16.0547 49.8786 16.3828C50.2796 16.7083 50.5856 17.1784 50.7965 17.793C51.0101 18.4049 51.1168 19.1406 51.1168 20C51.1168 20.862 51.0101 21.6003 50.7965 22.2148C50.5856 22.8294 50.2809 23.2995 49.8825 23.625C49.4866 23.9479 49.0075 24.1094 48.445 24.1094ZM48.445 23.4531C49.0621 23.4531 49.5439 23.1523 49.8903 22.5508C50.2366 21.9466 50.4098 21.0964 50.4098 20C50.4098 19.2708 50.3304 18.6484 50.1715 18.1328C50.0153 17.6146 49.79 17.2187 49.4957 16.9453C49.2041 16.6719 48.8538 16.5352 48.445 16.5352C47.833 16.5352 47.3525 16.8398 47.0036 17.4492C46.6546 18.056 46.4801 18.9062 46.4801 20C46.4801 20.7292 46.5582 21.3516 46.7145 21.8672C46.8733 22.3828 47.0986 22.776 47.3903 23.0469C47.6845 23.3177 48.0361 23.4531 48.445 23.4531ZM56.5111 24.1094C55.9486 24.1094 55.4681 23.9479 55.0696 23.625C54.6738 23.2995 54.3691 22.8294 54.1556 22.2148C53.9446 21.6003 53.8392 20.862 53.8392 20C53.8392 19.1406 53.9446 18.4049 54.1556 17.793C54.3691 17.1784 54.6751 16.7083 55.0736 16.3828C55.4746 16.0547 55.9538 15.8906 56.5111 15.8906C57.0683 15.8906 57.5462 16.0547 57.9446 16.3828C58.3457 16.7083 58.6517 17.1784 58.8626 17.793C59.0762 18.4049 59.1829 19.1406 59.1829 20C59.1829 20.862 59.0762 21.6003 58.8626 22.2148C58.6517 22.8294 58.347 23.2995 57.9486 23.625C57.5527 23.9479 57.0736 24.1094 56.5111 24.1094ZM56.5111 23.4531C57.1282 23.4531 57.61 23.1523 57.9564 22.5508C58.3027 21.9466 58.4759 21.0964 58.4759 20C58.4759 19.2708 58.3965 18.6484 58.2376 18.1328C58.0814 17.6146 57.8561 17.2187 57.5618 16.9453C57.2702 16.6719 56.9199 16.5352 56.5111 16.5352C55.8991 16.5352 55.4186 16.8398 55.0696 17.4492C54.7207 18.056 54.5462 18.9062 54.5462 20C54.5462 20.7292 54.6243 21.3516 54.7806 21.8672C54.9394 22.3828 55.1647 22.776 55.4564 23.0469C55.7506 23.3177 56.1022 23.4531 56.5111 23.4531ZM66.1396 22.5156V22.1523C66.1396 21.8529 66.1995 21.5833 66.3193 21.3437C66.4391 21.1016 66.6097 20.9102 66.8311 20.7695C67.0524 20.6289 67.3154 20.5586 67.6201 20.5586C67.9274 20.5586 68.1904 20.6289 68.4092 20.7695C68.6279 20.9102 68.7959 21.1016 68.9131 21.3437C69.0303 21.5833 69.0889 21.8529 69.0889 22.1523V22.5156C69.0889 22.8151 69.029 23.0846 68.9092 23.3242C68.792 23.5638 68.624 23.7552 68.4053 23.8984C68.1865 24.0391 67.9248 24.1094 67.6201 24.1094C67.3102 24.1094 67.0446 24.0391 66.8232 23.8984C66.6045 23.7552 66.4352 23.5638 66.3154 23.3242C66.1982 23.0846 66.1396 22.8151 66.1396 22.5156ZM66.7529 22.1523V22.5156C66.7529 22.8099 66.8245 23.0612 66.9678 23.2695C67.1136 23.4753 67.3311 23.5781 67.6201 23.5781C67.9014 23.5781 68.1136 23.4753 68.2568 23.2695C68.4001 23.0612 68.4717 22.8099 68.4717 22.5156V22.1523C68.4717 21.8581 68.4014 21.6081 68.2607 21.4023C68.1201 21.194 67.9066 21.0898 67.6201 21.0898C67.3363 21.0898 67.1201 21.194 66.9717 21.4023C66.8258 21.6081 66.7529 21.8581 66.7529 22.1523ZM62.1084 17.8477V17.4844C62.1084 17.1849 62.1683 16.9154 62.2881 16.6758C62.4079 16.4362 62.5785 16.2461 62.7998 16.1055C63.0212 15.9622 63.2842 15.8906 63.5889 15.8906C63.8962 15.8906 64.1592 15.9622 64.3779 16.1055C64.5967 16.2461 64.7646 16.4362 64.8818 16.6758C64.999 16.9154 65.0576 17.1849 65.0576 17.4844V17.8477C65.0576 18.1471 64.9977 18.418 64.8779 18.6602C64.7607 18.8997 64.5928 19.0898 64.374 19.2305C64.1553 19.3711 63.8936 19.4414 63.5889 19.4414C63.279 19.4414 63.0133 19.3711 62.792 19.2305C62.5732 19.0898 62.404 18.8997 62.2842 18.6602C62.167 18.418 62.1084 18.1471 62.1084 17.8477ZM62.7217 17.4844V17.8477C62.7217 18.1419 62.7933 18.3932 62.9365 18.6016C63.0824 18.8073 63.2998 18.9102 63.5889 18.9102C63.8701 18.9102 64.0824 18.8073 64.2256 18.6016C64.3688 18.3932 64.4404 18.1419 64.4404 17.8477V17.4844C64.4404 17.1901 64.3701 16.9401 64.2295 16.7344C64.0889 16.526 63.8753 16.4219 63.5889 16.4219C63.305 16.4219 63.0889 16.526 62.9404 16.7344C62.7946 16.9401 62.7217 17.1901 62.7217 17.4844ZM62.4678 24L67.9639 16H68.6553L63.1592 24H62.4678Z" fill="var(--text-color)"/>
<line x1="82" y1="19.5" x2="380" y2="19.5" stroke="#373434"/>
<line x1="82" y1="87.5" x2="380" y2="87.5" stroke="#373434"/>
<line x1="82" y1="155.5" x2="380" y2="155.5" stroke="#373434"/>
<line x1="82" y1="223.5" x2="380" y2="223.5" stroke="#373434"/>
<line x1="82" y1="291.5" x2="380" y2="291.5" stroke="#373434"/>
<line x1="117.5" y1="358" x2="117.5" y2="20" stroke="#373434"/>
<line x1="154.5" y1="358" x2="154.5" y2="20" stroke="#373434"/>
<line x1="192.5" y1="358" x2="192.5" y2="20" stroke="#373434"/>
<line x1="229.5" y1="358" x2="229.5" y2="20" stroke="#373434"/>
<line x1="267.5" y1="359" x2="267.5" y2="21" stroke="#373434"/>
<line x1="304.5" y1="359" x2="304.5" y2="21" stroke="#373434"/>
<line x1="342.5" y1="359" x2="342.5" y2="21" stroke="#373434"/>
<line x1="379.5" y1="359" x2="379.5" y2="21" stroke="#373434"/>
<path d="M117 156C132.246 193.856 205.991 273.055 379 287" stroke="#929292" stroke-width="2"/>
<path d="M173 156C195.889 179.968 269.133 231.323 379 245" stroke="#929292" stroke-width="2"/>
<path d="M268 158C284.833 169.014 330.6 193.034 379 201" stroke="#929292" stroke-width="2"/>
<line x1="117" y1="161" x2="117" y2="20" stroke="var(--text-highlight)" stroke-width="2" stroke-dasharray="8 12"/>
<path d="M76.6667 20C76.6667 22.9455 79.0545 25.3333 82 25.3333C84.9455 25.3333 87.3333 22.9455 87.3333 20C87.3333 17.0545 84.9455 14.6667 82 14.6667C79.0545 14.6667 76.6667 17.0545 76.6667 20ZM111.667 156C111.667 158.946 114.054 161.333 117 161.333C119.946 161.333 122.333 158.946 122.333 156C122.333 153.054 119.946 150.667 117 150.667C114.054 150.667 111.667 153.054 111.667 156ZM81.0136 20.1643C86.0127 50.1685 100.028 119.495 116.083 156.399L117.917 155.601C101.972 118.95 87.9873 49.8502 82.9864 19.8357L81.0136 20.1643Z" fill="var(--text-highlight)"/>
<path d="M112.667 20C112.667 22.9455 115.054 25.3333 118 25.3333C120.946 25.3333 123.333 22.9455 123.333 20C123.333 17.0545 120.946 14.6667 118 14.6667C115.054 14.6667 112.667 17.0545 112.667 20ZM167.667 156C167.667 158.946 170.054 161.333 173 161.333C175.946 161.333 178.333 158.946 178.333 156C178.333 153.054 175.946 150.667 173 150.667C170.054 150.667 167.667 153.054 167.667 156ZM117.033 20.2533C120.969 35.2887 128.444 60.1272 138.082 85.8133C147.714 111.484 159.533 138.073 172.174 156.564L173.826 155.436C161.324 137.149 149.572 110.743 139.954 85.1107C130.342 59.4934 122.888 34.7207 118.967 19.7467L117.033 20.2533Z" fill="var(--text-highlight)"/>
<line x1="173" y1="161" x2="173" y2="20" stroke="var(--text-highlight)" stroke-width="2" stroke-dasharray="8 12"/>
<path d="M168.667 21C168.667 23.9455 171.054 26.3333 174 26.3333C176.946 26.3333 179.333 23.9455 179.333 21C179.333 18.0545 176.946 15.6667 174 15.6667C171.054 15.6667 168.667 18.0545 168.667 21ZM262.667 157C262.667 159.946 265.054 162.333 268 162.333C270.946 162.333 273.333 159.946 273.333 157C273.333 154.054 270.946 151.667 268 151.667C265.054 151.667 262.667 154.054 262.667 157ZM173.087 21.4085C179.821 36.4575 192.602 61.3072 209.08 87.0018C225.551 112.687 245.756 139.278 267.35 157.76L268.65 156.24C247.273 137.944 227.192 111.54 210.763 85.9222C194.341 60.3135 181.607 35.5519 174.913 20.5915L173.087 21.4085Z" fill="var(--text-highlight)"/>
<line x1="269" y1="162" x2="269" y2="21" stroke="var(--text-highlight)" stroke-width="2" stroke-dasharray="8 12"/>
<path d="M264.667 21C264.667 23.9455 267.054 26.3333 270 26.3333C272.946 26.3333 275.333 23.9455 275.333 21C275.333 18.0545 272.946 15.6667 270 15.6667C267.054 15.6667 264.667 18.0545 264.667 21ZM269.213 21.617C284.834 41.5392 328.545 87.4688 378.561 111.899L379.439 110.101C329.798 85.8551 286.309 40.1791 270.787 20.383L269.213 21.617Z" fill="var(--text-highlight)"/>
</g>
<defs>
<clipPath id="clip0_42_190">
<rect width="400" height="400" fill="white"/>
</clipPath>
</defs>
</svg>
